<?xml version="1.0" encoding="UTF-8"?>
<svg id="Layer_1" data-name="Layer 1" xmlns="http://www.w3.org/2000/svg" viewBox="0 0 640 359.69">
  <defs>
    <style>
      .cls-1 {
        fill: #fff;
      }
    </style>
  </defs>
  <path class="cls-1" d="M73.25,337.49c-5.5,4.09-12.15,6.13-19.94,6.13-6.82,0-12.95-1.58-18.4-4.75-5.45-3.16-9.71-7.52-12.78-13.07-3.07-5.55-4.6-11.88-4.6-18.99s1.53-13.44,4.6-18.99c3.07-5.55,7.33-9.91,12.78-13.07,5.45-3.16,11.59-4.75,18.4-4.75,7.4,0,13.78,1.88,19.13,5.62,5.35,3.75,9.3,8.79,11.83,15.12h17.96c-1.95-6.91-5.19-13.17-9.71-18.77-4.53-5.6-10.15-10-16.87-13.22-6.72-3.21-14.17-4.82-22.35-4.82-9.93,0-18.96,2.31-27.09,6.94-8.13,4.63-14.53,10.98-19.21,19.06-4.67,8.08-7.01,17.04-7.01,26.87s2.34,18.79,7.01,26.87c4.67,8.08,11.07,14.44,19.21,19.06,8.13,4.63,17.16,6.94,27.09,6.94,8.08,0,15.53-1.61,22.35-4.82,6.81-3.21,12.56-7.72,17.23-13.51,4.67-5.79,8.03-12.44,10.08-19.94h-17.96c-2.34,6.62-6.26,11.98-11.76,16.07Z"/>
  <path class="cls-1" d="M165.7,286.96c-5.79-3.31-12.25-4.97-19.35-4.97s-13.78,1.71-19.72,5.11c-5.94,3.41-10.64,8.06-14.09,13.95-3.46,5.89-5.19,12.44-5.19,19.64s1.73,13.75,5.19,19.64c3.45,5.89,8.15,10.54,14.09,13.95,5.94,3.41,12.51,5.11,19.72,5.11,6.52,0,12.29-1.22,17.31-3.65,5.01-2.43,9.13-5.6,12.34-9.49,3.21-3.89,5.5-8.03,6.86-12.41h-16.07c-3.99,7.79-10.81,11.68-20.45,11.68-5.94,0-10.93-1.78-14.97-5.33-4.04-3.55-6.55-8.35-7.52-14.39h60.76v-3.65c0-7.98-1.7-15.02-5.11-21.1-3.41-6.08-8.01-10.78-13.8-14.09ZM124.29,313.4c1.26-5.35,3.87-9.61,7.81-12.78,3.94-3.16,8.69-4.75,14.24-4.75s10.56,1.63,14.46,4.89c3.89,3.26,6.47,7.47,7.74,12.63h-44.25Z"/>
  <path class="cls-1" d="M240.84,282.73h-10.22c-4.87,0-9.13,1.22-12.78,3.65-3.65,2.44-6.21,5.11-7.67,8.03h-.73v-10.95h-14.61v74.49h15.34v-40.16c0-6.13,1.92-11.07,5.77-14.82,3.85-3.75,8.74-5.62,14.68-5.62h10.22v-14.61Z"/>
  <path class="cls-1" d="M299.26,294.41h-.73c-2.24-3.6-5.57-6.57-10-8.91-4.43-2.34-9.37-3.51-14.82-3.51-6.33,0-12.1,1.61-17.31,4.82-5.21,3.21-9.35,7.77-12.41,13.66-3.07,5.89-4.6,12.63-4.6,20.23s1.53,14.34,4.6,20.23c3.07,5.89,7.2,10.44,12.41,13.66,5.21,3.21,10.98,4.82,17.31,4.82,5.45,0,10.39-1.17,14.82-3.5,4.43-2.34,7.76-5.31,10-8.91h.73v10.95h14.61v-74.49h-14.61v10.95ZM292.69,339.03c-3.9,4.33-9.01,6.5-15.34,6.5-6.72,0-12.05-2.17-15.99-6.5-3.94-4.33-5.92-10.44-5.92-18.33s1.97-14.12,5.92-18.4c3.94-4.28,9.27-6.43,15.99-6.43,6.33,0,11.44,2.17,15.34,6.5,3.89,4.33,5.84,10.44,5.84,18.33s-1.95,14-5.84,18.33Z"/>
  <path class="cls-1" d="M415.81,281.99c-6.04,0-11.17,1.36-15.41,4.09-4.24,2.73-7.72,5.99-10.44,9.79h-.73c-1.66-3.7-4.41-6.94-8.25-9.71-3.85-2.78-8.79-4.16-14.82-4.16-4.97,0-9.49,1.27-13.58,3.8-4.09,2.53-7.01,5.4-8.76,8.62h-.73v-10.95h-14.61v74.49h15.34v-41.04c0-6.62,1.75-11.78,5.26-15.48,3.51-3.7,7.93-5.55,13.29-5.55,4.97,0,8.84,1.63,11.61,4.89,2.77,3.26,4.16,7.96,4.16,14.09v43.09h15.34v-41.04c0-6.62,1.75-11.78,5.26-15.48,3.5-3.7,7.93-5.55,13.29-5.55,4.97,0,8.84,1.63,11.61,4.89,2.77,3.26,4.16,7.96,4.16,14.09v43.09h15.34v-44.55c0-10.03-2.48-17.77-7.45-23.22-4.97-5.45-11.59-8.18-19.86-8.18Z"/>
  <path class="cls-1" d="M459.48,254.97c-2.53,0-4.67.9-6.43,2.7-1.75,1.8-2.63,3.97-2.63,6.5s.88,4.67,2.63,6.43c1.75,1.75,3.89,2.63,6.43,2.63s4.7-.88,6.5-2.63c1.8-1.75,2.7-3.89,2.7-6.43s-.9-4.7-2.7-6.5c-1.8-1.8-3.97-2.7-6.5-2.7Z"/>
  <rect class="cls-1" x="451.89" y="283.46" width="15.34" height="74.49"/>
  <path class="cls-1" d="M537.33,293.68h-.73c-1.95-3.11-5.09-5.84-9.42-8.18-4.33-2.34-9.23-3.51-14.68-3.51-6.33,0-12.1,1.61-17.31,4.82-5.21,3.21-9.35,7.77-12.41,13.66-3.07,5.89-4.6,12.63-4.6,20.23s1.53,14.34,4.6,20.23c3.07,5.89,7.2,10.44,12.41,13.66,5.21,3.21,10.98,4.82,17.31,4.82,5.45,0,10.39-1.17,14.82-3.5,4.43-2.34,7.76-5.31,10-8.91h.73v10.95h14.61v-102.24h-15.34v37.97ZM531.48,339.03c-3.9,4.33-9.01,6.5-15.34,6.5-6.72,0-12.05-2.17-15.99-6.5-3.94-4.33-5.92-10.44-5.92-18.33s1.97-14,5.92-18.33c3.94-4.33,9.27-6.5,15.99-6.5,6.33,0,11.44,2.17,15.34,6.5,3.89,4.33,5.84,10.44,5.84,18.33s-1.95,14-5.84,18.33Z"/>
  <path class="cls-1" d="M635.03,300.76c-3.31-5.89-7.91-10.49-13.8-13.8-5.89-3.31-12.49-4.97-19.79-4.97s-13.9,1.66-19.79,4.97c-5.89,3.31-10.49,7.91-13.8,13.8-3.31,5.89-4.97,12.54-4.97,19.94s1.65,14.05,4.97,19.94c3.31,5.89,7.91,10.49,13.8,13.8,5.89,3.31,12.49,4.97,19.79,4.97s13.9-1.65,19.79-4.97c5.89-3.31,10.49-7.91,13.8-13.8,3.31-5.89,4.97-12.54,4.97-19.94s-1.66-14.04-4.97-19.94ZM617.87,338.81c-4.04,4.48-9.52,6.72-16.43,6.72s-12.39-2.24-16.43-6.72c-4.04-4.48-6.06-10.52-6.06-18.11s2.02-13.63,6.06-18.11c4.04-4.48,9.52-6.72,16.43-6.72s12.39,2.24,16.43,6.72c4.04,4.48,6.06,10.52,6.06,18.11s-2.02,13.63-6.06,18.11Z"/>
  <path class="cls-1" d="M264.96,164.45v-54.82h0l-27.41,13.7-9.14,4.57-14.93,7.47c.13.56.28,1.12.42,1.67,2.54,9.73,6.39,18.93,11.35,27.41,3.03,5.19,6.48,10.1,10.3,14.7.65.79,1.31,1.56,1.99,2.33,3.24,3.69,6.72,7.16,10.43,10.38,5.25,4.57,10.93,8.64,16.98,12.15,8.48,4.92,17.68,8.73,27.41,11.24,8.59,2.21,17.58,3.41,26.85,3.46l-26.85-26.85-27.41-27.41Z"/>
  <path class="cls-1" d="M374.6,204.01c6.05-3.51,11.74-7.58,16.98-12.15,3.7-3.22,7.19-6.69,10.43-10.38.68-.77,1.34-1.54,1.99-2.33,3.82-4.6,7.27-9.51,10.3-14.7,4.96-8.48,8.81-17.68,11.35-27.41.15-.56.29-1.11.42-1.67l-14.94-7.47-9.14-4.57-27.41-13.7v54.82l-27.41,27.4-26.85,26.85c9.27-.05,18.26-1.24,26.85-3.46,9.73-2.51,18.93-6.32,27.41-11.24Z"/>
  <path class="cls-1" d="M292.37,3.31c-9.73,2.51-18.93,6.32-27.41,11.24-6.36,3.69-12.32,8-17.79,12.85-3.41,3.02-6.62,6.25-9.62,9.68-.82.93-1.62,1.87-2.4,2.83-3.83,4.66-7.28,9.65-10.3,14.91-4.88,8.49-8.65,17.69-11.12,27.41-.13.53-.27,1.06-.39,1.6l24.22,12.11,27.4,13.7h0v-54.82L319.78,0h-5.74c-7.44.38-14.69,1.51-21.66,3.31Z"/>
  <path class="cls-1" d="M374.6,54.82v54.81h0l27.4-13.7,9.14-4.57,15.09-7.55c-.12-.53-.26-1.07-.39-1.59-2.47-9.72-6.25-18.92-11.12-27.41-3.03-5.26-6.47-10.25-10.3-14.91-.78-.96-1.59-1.9-2.4-2.83-3-3.42-6.22-6.65-9.62-9.67-5.47-4.85-11.42-9.17-17.78-12.85-8.48-4.92-17.68-8.73-27.41-11.24C340.21,1.51,332.97.38,325.52,0h-5.74l27.41,27.41,27.41,27.41Z"/>
</svg>