<?xml version="1.0" encoding="UTF-8"?>
<svg id="Layer_1" data-name="Layer 1" xmlns="http://www.w3.org/2000/svg" viewBox="0 0 523.8 536.9">
  <defs>
    <style>
      .cls-1 {
        fill: #fff;
      }
    </style>
  </defs>
  <path class="cls-1" d="M523.8,268.45c0,5.45-.07,10.88-.22,16.28-.15,5.48-.37,10.93-.67,16.34-.3,5.53-.68,11.02-1.14,16.48-.46,5.6-1.01,11.17-1.63,16.69-.64,5.7-1.36,11.36-2.16,16.97-.83,5.83-1.75,11.61-2.75,17.33-1.05,5.99-2.19,11.92-3.42,17.79-1.29,6.18-2.69,12.3-4.18,18.35-1.58,6.42-3.28,12.77-5.07,19.04-1.93,6.71-3.98,13.33-6.15,19.85-2.34,7.07-4.83,14.01-7.45,20.82-2.88,7.49-5.92,14.83-9.11,22-3.57,8.01-7.33,15.81-11.27,23.4-7.07,3.17-14.29,6.18-21.65,9.02-6.64,2.57-13.39,5-20.25,7.29-6.28,2.1-12.66,4.09-19.12,5.95-5.99,1.73-12.04,3.35-18.17,4.87,3.05-7.32,5.97-14.9,8.76-22.73,2.57-7.19,5.02-14.59,7.36-22.19,2.18-7.07,4.26-14.31,6.23-21.72,1.86-6.96,3.62-14.06,5.28-21.29,1.58-6.86,3.07-13.84,4.48-20.93,1.34-6.77,2.6-13.64,3.77-20.61,1.13-6.69,2.17-13.48,3.14-20.34.93-6.63,1.79-13.33,2.57-20.11.75-6.58,1.43-13.22,2.04-19.93.59-6.54,1.11-13.13,1.55-19.78.44-6.5.8-13.06,1.09-19.67,0-.08,0-.16.01-.23.46-10.46-8.06-19.12-18.53-18.87-.88.02-1.76.04-2.64.06-7.16.17-14.43.32-21.81.47-7.17.14-14.44.27-21.8.39-7.18.11-14.45.22-21.8.31-7.19.09-14.46.17-21.79.24-7.2.07-14.47.12-21.8.17-.04,7.29-.11,14.52-.2,21.69-.09,7.29-.2,14.53-.33,21.7-.13,7.31-.29,14.55-.47,21.71-.18,7.32-.39,14.56-.62,21.71-.23,7.33-.49,14.58-.77,21.73-.03.65-.05,1.3-.08,1.95-.42,10.69,8.47,19.44,19.15,18.8.07,0,.13,0,.2-.01,6.82-.41,13.59-.89,20.29-1.43,6.87-.56,13.67-1.19,20.4-1.88,6.93-.72,13.78-1.5,20.55-2.36-.95,7.17-1.97,14.23-3.06,21.19-1.13,7.25-2.33,14.38-3.61,21.37-6.46.99-12.99,1.9-19.59,2.72-6.39.8-12.85,1.52-19.36,2.16-6.34.62-12.73,1.17-19.18,1.64-6.3.46-12.65.84-19.04,1.15-6.28.3-12.59.53-18.95.68-6.27.15-12.57.22-18.91.22s-12.65-.07-18.91-.22c-6.36-.15-12.68-.38-18.95-.68-6.4-.3-12.75-.69-19.05-1.15-6.44-.47-12.84-1.01-19.18-1.64-6.51-.64-12.97-1.35-19.36-2.16-6.6-.82-13.13-1.73-19.59-2.72-1.27-7-2.48-14.13-3.61-21.37-1.09-6.96-2.11-14.02-3.06-21.19,6.77.86,13.62,1.64,20.55,2.36,6.73.7,13.53,1.33,20.4,1.88,6.7.55,13.46,1.02,20.29,1.43.07,0,.13,0,.2.01,10.68.64,19.57-8.11,19.15-18.8-.03-.65-.05-1.3-.08-1.95-.28-7.15-.54-14.39-.77-21.73-.23-7.15-.43-14.39-.62-21.71-.18-7.17-.34-14.4-.47-21.71-.13-7.17-.25-14.4-.33-21.7-.09-7.17-.15-14.41-.2-21.69-7.33-.05-14.59-.1-21.8-.17-7.34-.07-14.6-.15-21.79-.24-7.35-.09-14.61-.2-21.8-.31-7.36-.12-14.63-.25-21.8-.39-7.37-.14-14.64-.3-21.81-.47-.88-.02-1.76-.04-2.64-.06-10.47-.25-18.99,8.41-18.53,18.87,0,.08,0,.16.01.23.29,6.61.65,13.16,1.09,19.67.44,6.65.96,13.24,1.55,19.78.61,6.7,1.29,13.35,2.04,19.93.78,6.77,1.63,13.48,2.57,20.11.96,6.87,2.01,13.65,3.14,20.34,1.17,6.97,2.42,13.84,3.77,20.61,1.4,7.09,2.89,14.07,4.48,20.93,1.66,7.23,3.43,14.33,5.28,21.3,1.97,7.4,4.05,14.64,6.23,21.71,2.34,7.6,4.8,15,7.36,22.19,2.79,7.83,5.71,15.41,8.76,22.73-6.13-1.52-12.19-3.14-18.18-4.87-6.46-1.86-12.83-3.84-19.12-5.95-6.86-2.29-13.61-4.72-20.25-7.29-7.36-2.84-14.58-5.85-21.65-9.02-3.94-7.58-7.7-15.38-11.27-23.4-3.19-7.17-6.23-14.51-9.11-22-2.62-6.82-5.11-13.76-7.45-20.82-2.17-6.51-4.22-13.13-6.15-19.85-1.8-6.26-3.49-12.61-5.07-19.04-1.49-6.05-2.89-12.17-4.18-18.35-1.23-5.87-2.37-11.8-3.42-17.79-1-5.73-1.92-11.51-2.75-17.33-.8-5.61-1.53-11.27-2.16-16.97-.62-5.52-1.17-11.09-1.63-16.69-.46-5.46-.83-10.95-1.14-16.48-.3-5.42-.52-10.86-.67-16.34-.15-5.4-.22-10.82-.22-16.28s.07-10.88.22-16.28c.15-5.48.37-10.93.67-16.34.3-5.53.68-11.02,1.14-16.48.46-5.6,1.01-11.16,1.63-16.68.64-5.7,1.36-11.36,2.16-16.97.83-5.83,1.75-11.61,2.75-17.33,1.05-5.99,2.19-11.92,3.42-17.79,1.29-6.19,2.69-12.3,4.18-18.35,1.58-6.42,3.27-12.77,5.07-19.03,1.93-6.71,3.98-13.33,6.15-19.85,2.35-7.07,4.83-14.01,7.45-20.83,2.88-7.49,5.92-14.83,9.11-22,3.57-8.01,7.33-15.81,11.27-23.4,7.07-3.17,14.29-6.18,21.65-9.02,6.64-2.57,13.39-5,20.25-7.29,6.28-2.1,12.66-4.09,19.12-5.95,5.99-1.73,12.05-3.35,18.18-4.87-3.05,7.32-5.97,14.9-8.76,22.73-2.57,7.19-5.02,14.59-7.36,22.19-2.18,7.07-4.26,14.31-6.23,21.71-1.86,6.96-3.62,14.06-5.28,21.3-1.58,6.86-3.07,13.84-4.48,20.93-1.34,6.77-2.6,13.64-3.77,20.61-1.13,6.69-2.17,13.48-3.14,20.34-.93,6.63-1.79,13.33-2.57,20.11-.75,6.58-1.43,13.22-2.04,19.92-.59,6.54-1.11,13.13-1.55,19.78-.44,6.5-.8,13.06-1.09,19.67,0,.08,0,.16-.01.23-.46,10.46,8.06,19.12,18.53,18.87.88-.02,1.76-.04,2.64-.06,7.16-.17,14.43-.32,21.81-.47,7.17-.14,14.44-.27,21.8-.39,7.18-.11,14.45-.22,21.8-.31,7.19-.09,14.46-.17,21.79-.24,7.2-.07,14.47-.12,21.8-.17.04-7.29.11-14.52.2-21.69.09-7.29.2-14.53.33-21.7.13-7.31.29-14.55.47-21.71.18-7.32.39-14.56.62-21.71.23-7.33.49-14.58.77-21.73.03-.65.05-1.3.08-1.95.42-10.69-8.47-19.44-19.15-18.8-.07,0-.13,0-.2.01-6.82.41-13.59.89-20.29,1.43-6.87.56-13.67,1.19-20.4,1.88-6.93.72-13.78,1.5-20.55,2.36.95-7.17,1.97-14.23,3.06-21.19,1.13-7.25,2.34-14.38,3.61-21.37,6.46-.99,12.99-1.9,19.59-2.72,6.39-.8,12.85-1.52,19.36-2.16,6.34-.62,12.73-1.17,19.18-1.64,6.3-.46,12.65-.84,19.05-1.15,6.28-.3,12.59-.53,18.95-.68,6.27-.15,12.57-.22,18.91-.22s12.65.07,18.91.22c6.36.15,12.68.38,18.95.68,6.4.3,12.74.69,19.04,1.15,6.44.47,12.84,1.01,19.18,1.64,6.51.64,12.96,1.36,19.36,2.16,6.6.82,13.13,1.73,19.59,2.72,1.27,7,2.48,14.13,3.61,21.37,1.09,6.96,2.11,14.02,3.06,21.19-6.77-.86-13.62-1.64-20.55-2.36-6.73-.7-13.53-1.33-20.4-1.88-6.7-.55-13.46-1.02-20.29-1.43-.07,0-.13,0-.2-.01-10.68-.64-19.57,8.11-19.15,18.8.03.65.05,1.3.08,1.95.28,7.15.54,14.39.77,21.73.23,7.16.43,14.4.62,21.71.18,7.16.34,14.4.47,21.71.13,7.17.25,14.4.33,21.7.09,7.17.15,14.41.2,21.69,7.33.05,14.59.1,21.8.17,7.34.07,14.6.15,21.79.24,7.35.09,14.61.2,21.8.31,7.36.12,14.63.25,21.8.39,7.37.14,14.64.3,21.81.47.88.02,1.76.04,2.64.06,10.47.25,18.99-8.41,18.53-18.87,0-.08,0-.16-.01-.23-.29-6.61-.65-13.17-1.09-19.67-.44-6.65-.96-13.24-1.55-19.78-.61-6.7-1.29-13.35-2.04-19.92-.78-6.78-1.63-13.48-2.57-20.11-.96-6.86-2.01-13.64-3.14-20.34-1.17-6.97-2.43-13.84-3.77-20.61-1.4-7.09-2.89-14.07-4.48-20.93-1.66-7.23-3.43-14.33-5.28-21.29-1.97-7.4-4.05-14.64-6.23-21.72-2.34-7.6-4.8-15-7.36-22.19-2.79-7.83-5.71-15.41-8.76-22.73,6.13,1.51,12.19,3.14,18.17,4.87,6.46,1.86,12.83,3.84,19.12,5.95,6.86,2.29,13.61,4.72,20.25,7.29,7.36,2.84,14.58,5.85,21.65,9.02,3.94,7.58,7.7,15.39,11.27,23.4,3.19,7.17,6.23,14.51,9.11,22,2.62,6.82,5.11,13.76,7.45,20.83,2.17,6.51,4.22,13.13,6.15,19.85,1.8,6.26,3.49,12.61,5.07,19.03,1.49,6.05,2.89,12.17,4.18,18.35,1.23,5.87,2.37,11.8,3.42,17.79,1,5.73,1.92,11.51,2.75,17.33.8,5.61,1.53,11.27,2.16,16.97.62,5.52,1.17,11.09,1.63,16.68.46,5.46.83,10.95,1.14,16.48.3,5.42.52,10.86.67,16.34.15,5.4.22,10.82.22,16.28Z"/>
</svg>