<?xml version="1.0" encoding="UTF-8"?>
<svg id="Layer_1" data-name="Layer 1" xmlns="http://www.w3.org/2000/svg" viewBox="0 0 919.99 612.76">
  <defs>
    <style>
      .cls-1 {
        fill: #f9f9f3;
      }
    </style>
  </defs>
  <path class="cls-1" d="M417.67,308.57c9.27-3.9,17.14-10.38,22.53-18.8,1.22-1.91,1.97-3.36,2.45-4.47l-14.85,6.08c-4.99,2.05-8.96,5.63-11.19,10.09-1.27,2.56-1.71,4.66-1.18,5.75.31.63,1.06,1.08,2.24,1.35Z"/>
  <path class="cls-1" d="M273.65,496.39c-1.82,1.93-3.62,5.17-5.41,9.72-1.79,4.54-2.44,7.53-1.94,8.96.82,2.43,4.39,3.51,10.7,3.27,6.31-.25,9.74-1.78,10.29-4.59.33-1.71-1.32-5.61-4.96-11.69-3.64-6.09-6.53-7.98-8.68-5.67Z"/>
  <path class="cls-1" d="M566.71,496.39c-1.82,1.93-3.63,5.17-5.42,9.72-1.79,4.54-2.44,7.53-1.94,8.96.83,2.43,4.39,3.51,10.7,3.27,6.31-.25,9.74-1.78,10.29-4.59.34-1.71-1.32-5.61-4.96-11.69-3.63-6.09-6.52-7.98-8.67-5.67Z"/>
  <path class="cls-1" d="M909.51,555.97l-.07-.29c-1.14-4.92-3.31-12.85-6.65-24.25-3.25-11.08-6.97-22.84-11.08-34.97-4.15-12.26-8.48-23.78-12.84-34.23-5.48-13.09-10.27-21.2-15.52-26.27l-.32-.3c-5.49-5.07-13-8-22.97-8.97-3.4-.33-6.9-.5-10.42-.5-3.29,0-6.67.15-10.06.43-6.98.6-13.54,1.71-19.48,3.3-6.93,1.86-15.52,5.03-20.53,13.12l-.16.25c-.16.28-.33.56-.5.85-2.07-6.34-7.73-14.35-22.87-17.37-5.44-1.08-11.29-1.63-17.41-1.63-1.15,0-2.32.02-3.51.06-7.48.25-14.55,1.28-21.03,3.08-5.76,1.6-10.04,3.92-13.22,6.54-2.34-1.75-4.67-3.13-7.03-4.19l-.37-.17c-4.42-1.87-9.87-3.17-16.67-3.94-4.59-.53-9.24-.79-13.8-.79-1.15,0-2.29.01-3.43.05-6.08.17-11.67.85-16.61,2-16.64,3.88-20.26,15.04-21.05,20.06-.51,3.24-.96,6.75-1.33,10.56-4.16-9.43-7.99-15.95-12.01-20.49-2.84-11.84-6.52-24.18-10.01-34.99,2.26.94,4.32,1.79,5.83,2.42l16.47,6.81-7.27-16.27c-.49-1.09-8.51-19.04-15.88-34.62,1.05.46,1.88.82,2.38,1.05l10.63,4.67-.68-11.59c-.06-1.2-1.55-24.68-11.23-45.2l16.95,2.03-3.33-10.52c-1-3.13-8.09-25.23-14.92-40.52l6.63.06s-7.63-22.16-9.89-26.77c-3.95-8.05-7.83-14.04-11.72-18.06,5-8.21,5.71-18.21,4.86-26.99-1-10.39-4.45-20.39-9.8-29.36-16.04-26.95-67.87-113.93-67.87-113.93,0,0-13.04,18.27-17.25,37.88l-1.31,6.55c-.87,4.59-1.71,9.67-2.55,15.23-7.53-8.58-17.79-20.58-30.21-35.93l-15.68-19.36-4.47,24.5c-6.67,36.46-3.43,66.09-.66,81.4l-30.46,10.79c-9.27,3.28-17.29,9.25-23.19,17.26-4.95,6.7-8.14,14.47-9.37,22.68-13.48,5.53-29.64,14.99-48.16,28.2-15.37,10.94-26.72,20.48-27.95,21.53l-4.69,3.96.71,6.1c.09.75,1.56,11.7,8.98,22.63,6.9,10.17,20.38,22.34,45.37,22.55,9.03.08,20.43-2.38,32.24-5.62-.23,1.32-.43,2.58-.59,3.76-16.5,3.56-28.47,7.66-29.01,7.85l-15.79,5.42,10.76,12.77c5.14,6.11,12.02,10.36,19.62,12.27l-69.49,76.29,48.05-12.21c-4.75,7.91-9.28,16.61-13.56,26.04-2.91,4.12-3.85,8.28-4.14,10.88-.15,1.32-.32,3.23-.48,6.43-4.38-9.51-8.42-15.81-12.78-20.02l-.32-.3c-5.5-5.07-13-8-22.97-8.97-3.4-.33-6.9-.5-10.42-.5-3.29,0-6.67.15-10.06.43-6.98.6-13.54,1.71-19.48,3.3-4.23,1.14-9.08,2.76-13.36,5.7-6.35-7.55-14.59-8.88-17.75-9.1h-.16c-8.22-.52-18.8-.86-31.44-1-3.92-.04-7.82-.06-11.7-.06-8.54,0-17.11.1-25.48.32-12.29.31-23.36.87-32.9,1.67-9.16.77-15.26,1.77-19.84,3.42-3.01-1.68-6.69-3.11-11.17-4.14-6.47-1.48-13.49-2.24-20.88-2.24-1.04,0-2.09.02-3.16.05-8.64.24-16.8,1.49-24.26,3.72-18.49,5.52-22.62,17.62-23.43,24.42-.44,3.63-.84,10.06-.04,27.63.56,12.38,1.47,25.45,2.71,38.83,1.25,13.52,2.78,25.91,4.55,36.82,2.28,14.04,5.32,27.07,17.41,32.25,6.13,2.59,13.86,3.8,24.33,3.8,1.97,0,4.07-.04,6.24-.13,12.64-.5,26.6-2.01,33.46-13.33,3.17-4.94,4.79-11.57,6.21-24.82,1.04-9.65,1.82-20.85,2.33-33.29.04-.89.07-1.78.1-2.67.05,0,.11.01.15.02,1.5.17,3.07.33,4.71.48.8,9.92,1.78,19.8,2.92,29.51,2.36,20.04,5.02,34.67,17.95,40.34,4.3,1.88,9.36,2.99,15.93,3.51,3.3.26,6.67.39,10,.39,1.67,0,3.36-.03,5.03-.1,5.26-.2,10.16-.74,14.56-1.59,3.35-.65,13.14-2.54,18.79-11.05.07-.09.13-.19.2-.28.8,1.27,1.73,2.48,2.76,3.62,6.98,7.89,17.97,8.87,28.66,9.18,2.99.09,5.67.14,7.97.14,5.98,0,9.84-.29,12.95-.97,5.04-1.12,9.4-3.64,12.69-7.3,2.48-2.68,4.72-6.29,7.77-12.47.3-.6.59-1.19.88-1.78,2.38,6.72,6.12,14.26,13.33,18.74,2.91,1.83,6.12,3.02,9.53,3.54l.32.05.32.04c1.47.18,3.14.26,5.28.26,2.81,0,6.67-.14,11.78-.43,8.01-.46,14.64-1.16,20.33-2.12,3.39-.59,6.47-1.55,9.21-2.87,6.11,2.94,13.21,3.95,19.78,4.49,7.35.61,15.32.92,23.7.92,1.39,0,2.8,0,4.22-.02,9.75-.12,19.15-.51,27.92-1.17,12.58-.95,17.4-1.87,20.17-2.57,1.44-.35,3.11-.92,4.85-1.81,1.02.65,2.12,1.23,3.31,1.74,6.13,2.59,13.86,3.8,24.32,3.8,1.97,0,4.07-.04,6.25-.13,8.05-.32,16.63-1.05,23.58-4.46,6.51,3.54,14.64,4.15,22.6,4.38,2.98.09,5.66.14,7.97.14,5.97,0,9.83-.29,12.94-.97,5.04-1.12,9.41-3.64,12.7-7.31,2.48-2.67,4.72-6.28,7.77-12.46.29-.6.58-1.19.87-1.78,2.38,6.71,6.12,14.25,13.32,18.74,2.92,1.82,6.12,3.02,9.54,3.54l.32.05.33.04c1.46.18,3.14.26,5.27.26,2.82,0,6.67-.14,11.79-.43,8-.46,14.63-1.16,20.32-2.12,2.55-.45,4.93-1.1,7.12-1.96,7.6,3.72,16.63,4.12,22.51,4.38,2.18.09,4.28.14,6.25.14,10.3,0,17.93-1.3,24.02-4.1l.33-.15c4.91-2.36,8.08-6.04,10.18-10.1l.12.12c5.56,5.52,9.78,8.7,14.08,10.62,3.55,1.6,7.71,2.52,13.87,3.08,3.33.3,6.8.45,10.32.45,1.16,0,2.33-.02,3.52-.05,5-.14,9.71-.61,14.01-1.39,2.53-.47,4.87-1.12,7-1.96,6.04,2.53,13.17,3.02,20.16,3.22,2.99.09,5.67.14,7.97.14,5.98,0,9.84-.29,12.94-.97,5.04-1.12,9.41-3.63,12.7-7.3,2.48-2.68,4.72-6.29,7.77-12.47.3-.6.59-1.19.88-1.78,2.38,6.71,6.11,14.24,13.31,18.73,2.92,1.83,6.13,3.03,9.55,3.55l.32.05.32.04c1.47.18,3.14.26,5.28.26,2.81,0,6.67-.14,11.78-.43,8.01-.46,14.64-1.16,20.33-2.12,7.4-1.29,13.3-4.34,17.53-9.07,3.89-4.35,7.97-12.12,5.3-24.46ZM92.1,519.62c-.5,12.07-1.24,22.73-2.24,31.99-.99,9.25-2.09,14.71-3.3,16.36-1.16,2.2-6.92,3.51-17.28,3.93-10.36.41-17.68-.29-21.98-2.11-1.93-.83-3.75-6.5-5.46-17.03-1.7-10.52-3.17-22.34-4.38-35.46-1.21-13.11-2.09-25.74-2.64-37.89s-.58-20.26-.08-24.34c.38-3.36,3.48-5.91,9.29-7.65,5.82-1.73,12.18-2.7,19.1-2.89,6.91-.19,13.25.37,19.01,1.69,5.75,1.33,8.8,3.39,9.13,6.2.88,7.94,1.36,18.1,1.45,30.5.08,12.4-.13,24.63-.62,36.7ZM206.9,497.59c-4.63.31-9.83.57-15.62.79-.17,15.54-.74,30.51-1.74,44.92-.99,14.41-2.28,22.66-3.88,24.75-.61,1.11-2.62,1.99-6.03,2.65-3.42.66-7.26,1.07-11.53,1.24-4.28.16-8.5.08-12.69-.25s-7.36-.96-9.51-1.9c-2.26-.99-4.28-9.11-6.07-24.34-1.79-15.24-3.16-30.65-4.09-46.25-8.16-.16-15.18-.59-21.08-1.28-5.9-.69-9.15-1.69-9.75-3.01-1.05-2.1-1.93-5.47-2.65-10.13-.71-4.66-1.18-9.42-1.4-14.3-.22-4.87-.18-9.28.12-13.22.3-3.94,1.01-6.21,2.11-6.82,1.6-1.27,7-2.29,16.2-3.06,9.2-.77,19.78-1.31,31.74-1.61,11.95-.3,24.1-.39,36.45-.25,12.34.14,22.48.46,30.41.95,3.14.22,5.29,2.92,6.45,8.1,1.16,5.18,1.57,10.86,1.24,17.03-.33,6.17-1.28,11.85-2.85,17.02-1.57,5.18-3.49,7.86-5.75,8.02-2.09.33-5.45.65-10.08.95ZM339.61,567.1c-1.16,1.3-3.17,2.19-6.03,2.69-4.85.82-10.87,1.45-18.06,1.86-7.19.41-11.7.51-13.52.29-.71-.11-1.38-.36-1.98-.75-1.98-1.21-3.9-4.69-5.75-10.45-1.84-5.76-3.65-9.71-5.41-11.86-1.05-1.27-2.42-2.01-4.13-2.23l-13.56-.09c-4.24.11-7,1.52-8.26,4.22-1.66,3.47-3.53,7.33-5.62,11.57-2.1,4.24-3.64,6.86-4.63,7.85-.5.61-1.24,1.02-2.23,1.24-2.26.5-7.59.62-16,.37-8.4-.24-13.18-1.08-14.34-2.52-1.04-1.1-1.59-2.45-1.65-4.05-.11-5.34.83-13.39,2.81-24.13,1.98-10.75,4.46-21.92,7.44-33.52,2.98-11.6,6.13-22.46,9.46-32.6,3.34-10.14,6.24-17.28,8.72-21.41,1-1.6,3.9-3.04,8.72-4.34,4.82-1.29,10.16-2.19,16-2.69,5.84-.49,11.46-.48,16.86.04,5.4.53,9.17,1.78,11.32,3.77,3.09,2.97,6.74,9.5,10.95,19.58,4.22,10.09,8.34,21.07,12.36,32.94,4.02,11.88,7.63,23.27,10.83,34.18,3.19,10.91,5.31,18.62,6.36,23.14.72,3.31.5,5.61-.66,6.9ZM360.79,401.19l-43.03,10.94,63.95-70.21c-10.94,2.34-22.48-1.48-29.84-10.21l-4.08-4.85,5.99-2.05c.75-.26,14.81-5.05,33.23-8.66.31-4.21,1.25-12.33,4.1-19.99-15.84,4.79-31.22,8.93-42.23,8.84-42.37-.36-47.3-38.52-47.34-38.9l-.27-2.31,1.77-1.5c1.89-1.6,45.35-38.18,78.14-50.1,1.02-17.39,12.13-32.57,28.32-38.31l36.28-12.84c-2.46-10.96-8.11-43.35-.55-84.77l1.7-9.28,5.95,7.33c19.16,23.69,33.17,39.44,40.68,47.62,2.17-41.68,16.09-63.98,16.09-63.98l66.65,113.89c.52,1.25,12.14,30.18-3.8,45.86,11.24,4.61,22.28,36.21,22.28,36.34,0,0-2.26-.02-9.04-.07,7.56,11,19.91,49.88,19.91,49.88l-20.31-2.44c15.64,20.48,17.61,54.39,17.61,54.39,0,0-18.19-8.01-20.33-9.1,7.25,13.52,24.1,51.22,24.47,52.05-.56-.22-18.33-7.58-20.32-8.66,3.76,10.8,8.7,25.82,12.69,40.81-3.42-1.71-7.36-2.93-11.87-3.67-6.63-25.42-14.75-50.98-14.75-50.98,0,0,7.19.82,16.83,4.49-4.35-11.43-24.22-47.92-24.22-47.92,0,0,12.97.63,24.26,6.75-2.38-23.45-24-51.08-24-51.08,0,0,21.85.52,28.61,2.84-11.02-31.73-24.48-43.14-24.48-43.14,0,0,6.79-2.21,11.31-2.17-6.56-24.91-22.93-28.88-22.93-28.88l6.66-4.91c13.82-10.18,4.38-35.38,3.37-37.96-2.65-4.71-41.46-73.45-57.65-99.86-.96,3.25-1.98,7.7-3.02,12.9,8.81,16.7,42.59,84.63,25.75,115.57l-7.56-4.13c6.73-12.35,4.17-35.24-7.34-66.25-4.46-11.93-9.45-22.94-13.38-31.05-1.54,9.4-2.98,19.73-4.11,29.48-.12,1.82-2.21,35.75,3.7,58.18l-8.39,2.2c-5.64-21.39-4.5-51.25-4.08-59.14-4.21-4.41-18.31-19.54-40.05-46.01-5.98,43.34,2.75,75,2.85,75.34l1.11,3.91-43.82,15.52c-13.58,4.8-22.67,18.03-22.62,32.9l-.03,3.51-2.97.96c-18.26,5.9-41.5,21.5-57.87,33.62.44,5.66-1.12,15.63-14.38,24.62,4.77,8.6,14.55,18.48,34.44,18.65,11.67.1,30.91-5.75,48.29-11.14,4.78-5.53,8.76-12.04,11.82-19.35,4.78-11.39,11.33-18.97,18.95-21.91,6.11-2.36,12.89-1.83,20.16,1.55,12.27,5.73,18.93,12.26,19.77,19.42.94,7.98-5.74,13.38-6.03,13.61l-.53.31-9.15,3.74c.44,4.4-2.25,9.33-4.61,13.02-9.36,14.63-25.02,24.29-42.95,26.5-16.48,2.03-32.03,6.1-40.78,8.66,5.69,3.44,12.78,4.19,19.24,1.74,21.6-8.22,61.49-17.36,91.13,10.79,2.93-3.1,5.31-5.97,7.24-8.6,6.05-8.25,8.38-18.66,6.78-28.76l-2.98-18.93,12.69,26.03c1.94,3.98,5.78,12.07,7.72,18.07,8.32-12.03,6.02-25.36,5.9-26.02l-2.04-11.05,8.93,6.8c6.09,4.64,10.22,8.04,13.02,10.57,2.46-11.87-1.99-29.24-4.31-35.93l-6.3-18.19,19.62,19.96c.27-12.13-1.28-29.54-9.59-36.77l5.7-6.54c16.62,14.49,12.08,52.18,11.87,53.78l-1.12,8.88-7.95-8.09c1.9,10.58,2.73,24.14-2.61,33.29l-8.21,14.1.03-5.21c.07-6.62-2.88-12.9-8-17.09l-.11-.09c-.58,8.53-3.66,20.92-15.17,30.82l-7.24,6.23.06-7.85c.04-4.94-.91-9.84-2.8-14.42-1.42,3.15-3.46,6.79-6.38,10.84-2.92,4.07-6.73,8.56-11.69,13.43l-3.18,3.12-3.03-3.24c-10.33-11.07-32.88-26.71-72.59-15.86l-51.24,57.75,45.31-15.42c-.58.62-19.01,20.52-35.57,48.43-2.08.28-4.11.62-6.09,1.03-2.76.56-5.2,1.3-7.36,2.16,4.92-9.55,10.7-19.3,17.34-28.18ZM466.84,219.65l-4.54,9.76-1.25-.63c-10.34-5.21-22.47-4.76-32.43,1.23l-5.2-9.39c12.95-7.79,28.72-8.38,42.18-1.61l1.24.64ZM440.94,560.74c-.66,4.99-1.93,7.7-3.8,8.14-2.81.72-8.42,1.39-16.82,2.02-8.4.64-17.29,1.01-26.66,1.12-9.36.11-18.04-.16-26.03-.83-7.99-.66-12.92-1.98-14.8-3.96-1.87-1.99-3.32-8.41-4.34-19.26-1.02-10.86-1.7-22.79-2.06-35.79-.36-13-.5-25.37-.42-37.11.09-11.74.35-19.51.79-23.31.22-2.26,2.89-3.91,8.02-4.96,5.12-1.04,10.71-1.58,16.78-1.61,6.06-.03,11.64.4,16.73,1.28,5.1.88,7.76,2.12,7.98,3.72.27,2.59.48,7.41.62,14.46.14,7.06.26,14.39.37,21.99.11,7.6.23,14.48.37,20.62.14,6.15.35,9.6.62,10.37.39,1.27,2.22,1.98,5.5,2.11,3.28.14,6.94.1,10.99-.12,4.05-.22,7.95-.46,11.7-.7,3.74-.25,6.31-.16,7.68.28,1.99.67,3.6,3.55,4.84,8.64,1.24,5.1,2.04,10.61,2.4,16.53.35,5.93.2,11.38-.46,16.37ZM502.73,519.62c-.49,12.07-1.24,22.73-2.23,31.99-.99,9.25-2.09,14.71-3.3,16.36-1.16,2.2-6.92,3.51-17.28,3.93-10.36.41-17.69-.29-21.98-2.11-1.93-.83-3.75-6.5-5.46-17.03-1.71-10.52-3.17-22.34-4.38-35.46-1.21-13.11-2.09-25.74-2.65-37.89-.55-12.15-.57-20.26-.08-24.34.39-3.36,3.49-5.91,9.3-7.65,5.81-1.73,12.18-2.7,19.09-2.89,6.92-.19,13.26.37,19.01,1.69,5.76,1.33,8.81,3.39,9.14,6.2.88,7.94,1.36,18.1,1.44,30.5.09,12.4-.12,24.63-.62,36.7ZM632.66,567.1c-1.15,1.3-3.17,2.19-6.03,2.69-4.85.82-10.87,1.45-18.06,1.86-7.19.41-11.7.51-13.51.29-.72-.11-1.38-.36-1.99-.75-1.98-1.21-3.9-4.69-5.74-10.45-1.85-5.76-3.65-9.71-5.42-11.86-1.04-1.27-2.42-2.01-4.13-2.23l-13.55-.09c-4.25.11-7,1.52-8.27,4.22-1.65,3.47-3.53,7.33-5.62,11.57-2.09,4.24-3.64,6.86-4.63,7.85-.49.61-1.24,1.02-2.23,1.24-2.26.5-7.59.62-15.99.37-8.41-.24-13.19-1.08-14.34-2.52-1.05-1.1-1.6-2.45-1.66-4.05-.11-5.34.83-13.39,2.81-24.13,1.99-10.75,4.47-21.92,7.44-33.52,2.98-11.6,6.13-22.46,9.47-32.6,3.33-10.14,6.24-17.28,8.72-21.41.99-1.6,3.89-3.04,8.72-4.34,4.82-1.29,10.15-2.19,15.99-2.69,5.84-.49,11.46-.48,16.86.04,5.4.53,9.18,1.78,11.32,3.77,3.09,2.97,6.74,9.5,10.96,19.58,4.21,10.09,8.33,21.07,12.35,32.94,4.02,11.88,7.63,23.27,10.83,34.18,3.2,10.91,5.32,18.62,6.36,23.14.72,3.31.5,5.61-.66,6.9ZM761.56,519.29c-.19,12.23-.57,23.02-1.12,32.36-.55,9.34-1.13,14.78-1.73,16.32-.66,1.32-2.65,2.29-5.95,2.89-3.31.61-6.96.97-10.95,1.08-4,.11-7.83,0-11.49-.33-3.67-.33-6.16-.8-7.48-1.41-1.88-.82-4.6-3.02-8.19-6.57-3.58-3.55-7.24-7.41-10.99-11.57s-7.16-8.09-10.25-11.78c-3.08-3.69-5.04-6.11-5.87-7.27-.82,9.81-1.68,18.22-2.56,25.25-.88,7.02-2.01,10.87-3.39,11.53-4.07,1.87-11.09,2.59-21.03,2.15-9.95-.44-15.45-1.77-16.49-3.97-1.21-1.65-2.25-7.19-3.1-16.61-.86-9.43-1.43-20.25-1.74-32.49-.3-12.23-.29-24.63.04-37.19.34-12.56,1.13-22.81,2.4-30.75.22-1.59,2.16-2.82,5.83-3.67,3.66-.86,7.88-1.35,12.64-1.49,4.77-.14,9.56.07,14.39.62,4.82.55,8.52,1.38,11.11,2.48,3.81,1.71,8.56,6.25,14.26,13.64,5.7,7.38,9.85,12.97,12.44,16.77-.17-5.89-.35-11.11-.54-15.66-.19-4.54-.18-7.89.04-10.04.11-2.65,2.65-4.66,7.61-6.03,4.96-1.38,10.4-2.17,16.32-2.36,5.92-.19,11.38.21,16.37,1.2,4.98.99,7.61,2.51,7.89,4.54.83,8.1,1.34,18.46,1.53,31.08.19,12.62.19,25.05,0,37.28ZM889.3,567.1c-1.16,1.3-3.17,2.19-6.03,2.69-4.85.82-10.87,1.45-18.06,1.86-7.19.41-11.7.51-13.52.29-.71-.11-1.38-.36-1.98-.75-1.99-1.21-3.9-4.69-5.75-10.45-1.84-5.76-3.65-9.71-5.41-11.86-1.05-1.27-2.42-2.01-4.13-2.23l-13.56-.09c-4.24.11-7,1.52-8.26,4.22-1.66,3.47-3.53,7.33-5.62,11.57-2.1,4.24-3.64,6.86-4.63,7.85-.5.61-1.24,1.02-2.23,1.24-2.26.5-7.59.62-16,.37-8.4-.24-13.18-1.08-14.34-2.52-1.04-1.1-1.6-2.45-1.65-4.05-.11-5.34.83-13.39,2.81-24.13,1.98-10.75,4.46-21.92,7.44-33.52,2.98-11.6,6.13-22.46,9.46-32.6,3.34-10.14,6.24-17.28,8.72-21.41,1-1.6,3.9-3.04,8.72-4.34,4.82-1.29,10.16-2.19,16-2.69,5.84-.49,11.46-.48,16.86.04,5.4.53,9.17,1.78,11.32,3.77,3.09,2.97,6.74,9.5,10.95,19.58,4.22,10.09,8.34,21.07,12.36,32.94,4.02,11.88,7.63,23.27,10.83,34.18,3.19,10.91,5.31,18.62,6.36,23.14.72,3.31.5,5.61-.66,6.9Z"/>
  <path class="cls-1" d="M823.34,496.39c-1.82,1.93-3.62,5.17-5.41,9.72-1.79,4.54-2.44,7.53-1.94,8.96.82,2.43,4.39,3.51,10.7,3.27,6.31-.25,9.74-1.78,10.29-4.59.33-1.71-1.32-5.61-4.96-11.69-3.64-6.09-6.53-7.98-8.68-5.67Z"/>
</svg>