<svg width="255" height="155" viewBox="0 0 255 155" fill="none" xmlns="http://www.w3.org/2000/svg">
<path d="M235.258 154.139V132.878H222.463V127.079H254.935V132.878H242.139V154.139H235.258Z" fill="white"/>
<path d="M190.078 154.139V127.079H219.419V132.8H196.959V137.903H214.007V143.122H196.959V148.418H219.883V154.139H190.078Z" fill="white"/>
<path d="M143.115 154.139V127.079H153.746L162.057 142.503H163.14L171.49 127.079H181.966V154.139H175.317V134.269H174.466L165.962 149.926H159.119L150.615 134.269H149.764V154.139H143.115Z" fill="white"/>
<path d="M120.371 146.255V140.727H135.795V146.255H120.371Z" fill="white"/>
<path d="M74.2188 154.139V127.079H84.8495L93.1608 142.503H94.2432L102.593 127.079H113.069V154.139H106.42V134.269H105.57L97.0652 149.926H90.2228L81.7183 134.269H80.8678V154.139H74.2188Z" fill="white"/>
<path d="M38.3535 154.139V127.079H67.6944V132.8H45.2345V137.903H62.2823V143.122H45.2345V148.418H68.1582V154.139H38.3535Z" fill="white"/>
<path d="M0 154.139V127.079H24.586L30.8485 132.452V140.339L25.2432 145.132L31.7376 152.09V154.139H24.6633L17.2798 145.867H6.88099V154.139H0ZM6.88099 140.145H21.3388L23.9675 137.942V135.004L21.3388 132.8H6.88099V140.145Z" fill="white"/>
<g clip-path="url(#clip0_1536_599)">
<path d="M124.783 0L112.106 38.0849H68V19.5956L86.8866 0.137443L124.783 0Z" fill="white"/>
<path d="M124.783 0L124.888 38.024L168.932 50.8261L175.086 42.6294L175.222 19.1766L156.145 0.137443L124.783 0Z" fill="white"/>
<path d="M68 38.085L112.101 50.9281L112.233 108H68.0452L68 38.085Z" fill="white"/>
<path d="M168.932 50.8262H124.701L112.498 89.0541L137.342 107.849H175.013L193.999 69.8575L168.932 50.8262Z" fill="white"/>
</g>
<defs>
<clipPath id="clip0_1536_599">
<rect width="126" height="108" fill="white" transform="translate(68)"/>
</clipPath>
</defs>
</svg>
