<svg width="200" height="156" viewBox="0 0 200 156" fill="none" xmlns="http://www.w3.org/2000/svg">
<path d="M200.001 114.934V154.682H189.834V149.659C188.536 151.381 186.829 152.744 184.714 153.749C182.647 154.706 180.387 155.184 177.936 155.184C174.811 155.184 172.047 154.538 169.643 153.247C167.24 151.907 165.341 149.97 163.947 147.435C162.601 144.852 161.928 141.791 161.928 138.251V114.934H172.023V136.817C172.023 139.973 172.816 142.413 174.402 144.135C175.989 145.809 178.152 146.646 180.892 146.646C183.68 146.646 185.868 145.809 187.454 144.135C189.04 142.413 189.834 139.973 189.834 136.817V114.934H200.001Z" fill="white"/>
<path d="M158.523 133.946C158.523 135.381 158.427 136.672 158.234 137.82H129.03C129.271 140.69 130.28 142.938 132.059 144.565C133.838 146.191 136.025 147.004 138.621 147.004C142.37 147.004 145.038 145.402 146.625 142.197H157.513C156.359 146.023 154.148 149.18 150.879 151.668C147.61 154.107 143.596 155.327 138.837 155.327C134.991 155.327 131.53 154.49 128.454 152.815C125.425 151.094 123.045 148.678 121.315 145.569C119.632 142.46 118.791 138.873 118.791 134.807C118.791 130.693 119.632 127.082 121.315 123.973C122.997 120.864 125.353 118.472 128.381 116.798C131.41 115.124 134.895 114.287 138.837 114.287C142.635 114.287 146.024 115.1 149.004 116.727C152.033 118.353 154.364 120.673 155.999 123.686C157.681 126.652 158.523 130.072 158.523 133.946ZM148.067 131.076C148.019 128.493 147.081 126.436 145.255 124.906C143.428 123.327 141.193 122.538 138.549 122.538C136.049 122.538 133.934 123.303 132.203 124.834C130.521 126.317 129.487 128.397 129.102 131.076H148.067Z" fill="white"/>
<path d="M100.985 155.327C97.7165 155.327 94.784 154.753 92.1881 153.605C89.5922 152.409 87.5252 150.807 85.9868 148.798C84.4966 146.789 83.6794 144.565 83.5352 142.125H93.7024C93.8947 143.656 94.6398 144.923 95.9378 145.928C97.2838 146.932 98.9423 147.434 100.913 147.434C102.836 147.434 104.326 147.052 105.384 146.286C106.49 145.521 107.042 144.541 107.042 143.345C107.042 142.053 106.369 141.097 105.023 140.475C103.725 139.805 101.634 139.088 98.75 138.322C95.7695 137.605 93.3178 136.864 91.395 136.098C89.5201 135.333 87.8857 134.161 86.4916 132.583C85.1456 131.004 84.4726 128.876 84.4726 126.197C84.4726 123.997 85.0975 121.988 86.3474 120.17C87.6453 118.353 89.4721 116.918 91.8276 115.866C94.2312 114.813 97.0434 114.287 100.264 114.287C105.023 114.287 108.821 115.483 111.657 117.874C114.494 120.218 116.056 123.399 116.344 127.417H106.682C106.538 125.838 105.865 124.595 104.663 123.686C103.509 122.729 101.947 122.251 99.9758 122.251C98.1491 122.251 96.731 122.586 95.7215 123.256C94.76 123.925 94.2793 124.858 94.2793 126.054C94.2793 127.393 94.9523 128.421 96.2983 129.139C97.6443 129.808 99.7355 130.502 102.572 131.219C105.456 131.937 107.836 132.678 109.71 133.444C111.585 134.209 113.196 135.405 114.542 137.031C115.936 138.609 116.657 140.714 116.705 143.345C116.705 145.641 116.056 147.697 114.758 149.515C113.508 151.333 111.681 152.768 109.278 153.82C106.922 154.824 104.158 155.327 100.985 155.327Z" fill="white"/>
<path d="M79.3446 114.934V154.682H69.1774V149.659C67.8794 151.381 66.1729 152.744 64.0577 153.749C61.9906 154.706 59.7312 155.184 57.2795 155.184C54.1548 155.184 51.3907 154.538 48.9871 153.247C46.5835 151.907 44.6846 149.97 43.2905 147.435C41.9445 144.852 41.2715 141.791 41.2715 138.251V114.934H51.3666V136.817C51.3666 139.973 52.1598 142.413 53.7462 144.135C55.3326 145.809 57.4958 146.646 60.2359 146.646C63.0241 146.646 65.2114 145.809 66.7978 144.135C68.3842 142.413 69.1774 139.973 69.1774 136.817V114.934H79.3446Z" fill="white"/>
<path d="M18.676 155.182C15.1668 155.182 11.994 154.584 9.15775 153.389C6.36956 152.193 4.15824 150.471 2.52379 148.223C0.889335 145.975 0.0480721 143.32 0 140.259H10.8162C10.9605 142.315 11.6815 143.942 12.9795 145.138C14.3255 146.333 16.1522 146.931 18.4597 146.931C20.8152 146.931 22.666 146.381 24.012 145.281C25.3581 144.133 26.0311 142.65 26.0311 140.833C26.0311 139.35 25.5744 138.13 24.661 137.174C23.7476 136.217 22.5939 135.476 21.1998 134.949C19.8538 134.375 17.979 133.754 15.5754 133.084C12.3065 132.127 9.63847 131.195 7.57136 130.286C5.55233 129.329 3.7977 127.918 2.30747 126.053C0.865302 124.139 0.14422 121.604 0.14422 118.448C0.14422 115.482 0.889337 112.899 2.37957 110.699C3.86981 108.499 5.96095 106.824 8.65299 105.676C11.345 104.481 14.4216 103.883 17.8828 103.883C23.0746 103.883 27.281 105.15 30.5018 107.685C33.7707 110.173 35.5734 113.664 35.9099 118.161H24.8052C24.7091 116.439 23.964 115.028 22.5699 113.927C21.2239 112.779 19.4212 112.206 17.1618 112.206C15.1908 112.206 13.6044 112.708 12.4026 113.712C11.2489 114.717 10.672 116.176 10.672 118.089C10.672 119.428 11.1047 120.552 11.97 121.461C12.8833 122.322 13.989 123.039 15.2869 123.613C16.633 124.139 18.5078 124.761 20.9114 125.479C24.1803 126.435 26.8483 127.392 28.9154 128.349C30.9825 129.305 32.7612 130.74 34.2514 132.654C35.7417 134.567 36.4868 137.078 36.4868 140.187C36.4868 142.866 35.7897 145.353 34.3956 147.649C33.0015 149.945 30.9585 151.786 28.2664 153.173C25.5744 154.513 22.3776 155.182 18.676 155.182Z" fill="white"/>
<g clip-path="url(#clip0_1478_1593)">
<mask id="path-6-inside-1_1478_1593" fill="white">
<path d="M93.8966 99.0362L93.834 99.0342C93.8555 99.0342 93.8751 99.0342 93.8966 99.0362Z"/>
</mask>
<path d="M93.8966 99.0362L93.834 99.0342C93.8555 99.0342 93.8751 99.0342 93.8966 99.0362Z" fill="white"/>
<path d="M93.8966 99.0362L93.8649 100.036L93.9886 98.0404L93.8966 99.0362ZM93.834 99.0342V98.0342L93.8023 100.034L93.834 99.0342ZM93.8966 99.0362L93.9282 98.0367L93.8657 98.0347L93.834 99.0342L93.8023 100.034L93.8649 100.036L93.8966 99.0362ZM93.834 99.0342V100.034C93.8399 100.034 93.8422 100.034 93.8439 100.034C93.8452 100.034 93.844 100.034 93.8412 100.034C93.8351 100.034 93.8219 100.034 93.8046 100.032L93.8966 99.0362L93.9886 98.0404C93.9142 98.0335 93.8499 98.0342 93.834 98.0342V99.0342Z" fill="white" mask="url(#path-6-inside-1_1478_1593)"/>
<path d="M80.5312 43.7775C80.5312 45.2984 81.74 46.5287 83.2343 46.5287C84.7286 46.5287 85.9373 45.2984 85.9373 43.7775C85.9373 42.2566 84.7266 41.0264 83.2343 41.0264C81.7419 41.0264 80.5312 42.2586 80.5312 43.7775Z" fill="white"/>
<path d="M109.498 99.0362C109.52 99.0342 109.539 99.0342 109.561 99.0342H109.498V99.0362Z" fill="white"/>
<path d="M151.396 74.9639C151.488 75.7024 151.565 76.445 151.623 77.1935C151.592 76.437 151.516 75.6945 151.396 74.9639Z" fill="white"/>
<path d="M151.625 77.2057C151.625 77.2057 151.625 77.1977 151.623 77.1937C151.564 76.4452 151.488 75.7027 151.396 74.9642C151.396 74.9562 151.396 74.9502 151.394 74.9443C151.384 74.8547 151.372 74.7671 151.361 74.6775C151.361 74.6675 151.361 74.6576 151.357 74.6456C151.052 72.2807 150.584 69.9635 149.97 67.712C149.951 67.6344 149.929 67.5567 149.906 67.4791C149.444 65.8089 148.898 64.1745 148.276 62.578C148.274 62.572 148.27 62.564 148.268 62.5581C147.218 59.8646 145.949 57.2847 144.482 54.8401C143.295 52.8633 141.982 50.9761 140.549 49.1904C141.155 46.3875 141.472 43.4731 141.472 40.4851C141.472 33.2468 139.606 26.4545 136.336 20.576C135.831 19.6662 135.291 18.7784 134.72 17.9144C134.546 17.6516 134.37 17.3889 134.188 17.1301C135.534 15.854 136.377 14.0345 136.377 12.0139C136.377 11.7293 136.359 11.4486 136.328 11.1739C135.964 8.08427 133.619 5.6138 130.621 5.11811C130.261 5.05839 129.889 5.02654 129.512 5.02654C127.513 5.02654 125.713 5.89648 124.46 7.28401C118.011 2.69343 110.164 0 101.697 0C93.2302 0 85.3832 2.69343 78.9347 7.28401C77.681 5.89648 75.8816 5.02654 73.8827 5.02654C73.5052 5.02654 73.1336 5.05839 72.7737 5.11811C69.7753 5.6138 67.4302 8.08427 67.0664 11.1739C67.0351 11.4486 67.0175 11.7293 67.0175 12.0139C67.0175 14.0345 67.8605 15.854 69.2062 17.1301C69.0243 17.3889 68.8482 17.6516 68.6742 17.9144C68.1031 18.7784 67.5632 19.6662 67.0586 20.576C63.7884 26.4545 61.9225 33.2468 61.9225 40.4851C61.9225 43.4731 62.2393 46.3875 62.8457 49.1904C61.412 50.9761 60.0996 52.8633 58.9124 54.8401C57.4455 57.2847 56.1761 59.8646 55.1258 62.5581C55.1258 62.564 55.12 62.572 55.118 62.578C54.496 64.1745 53.9504 65.8089 53.4888 67.4791C53.4653 67.5567 53.4438 67.6344 53.4242 67.712C52.8101 69.9635 52.3426 72.2807 52.0375 74.6456C52.0355 74.6576 52.0355 74.6675 52.0336 74.6775C52.0219 74.7671 52.0101 74.8547 52.0003 74.9443C51.9984 74.9502 51.9984 74.9562 51.9984 74.9642C51.9984 74.9681 51.9984 74.9721 51.9984 74.9781C51.881 75.6987 51.8067 76.4313 51.7735 77.1778C51.7735 77.1838 51.7735 77.1878 51.7735 77.1937C51.7735 77.1977 51.7735 77.2017 51.7735 77.2057C51.7617 77.4784 51.7559 77.7512 51.7559 78.0259C51.7559 85.079 55.5874 91.2203 61.2477 94.4114C61.2516 94.4154 61.2555 94.4174 61.2595 94.4174C61.3651 94.4771 61.4726 94.5368 61.5802 94.5945L61.8384 94.7319C63.6769 95.7074 65.5976 96.5395 67.5906 97.2163C71.5493 98.56 75.7857 99.2886 80.1884 99.2886H80.3644C80.4055 99.2886 80.4446 99.2886 80.4857 99.2886H80.5248H80.603C80.603 99.2886 80.6128 99.2886 80.6167 99.2866C80.6246 99.2866 80.6304 99.2886 80.6383 99.2866H80.7028C87.6892 99.1035 93.2986 93.2807 93.2986 86.1241C93.2986 85.9031 93.2928 85.6841 93.281 85.4671C93.1813 83.3649 92.5965 81.3922 91.6361 79.6642C90.8127 78.1772 89.7155 76.8693 88.4109 75.8142C87.8339 75.3464 87.2178 74.9283 86.5665 74.566C84.7241 73.5388 82.6117 72.9555 80.3625 72.9555C79.6251 72.9555 78.9034 73.0172 78.2012 73.1387L77.057 60.6768L75.2713 41.2196C75.1129 39.4877 75.8718 37.9031 77.1255 36.9356C77.5265 36.7047 77.9313 36.4798 78.3401 36.2588C78.3421 36.2568 78.346 36.2568 78.3479 36.2568C78.8545 36.0677 79.4002 35.9642 79.9733 35.9642H93.4316C94.7655 32.7551 97.8519 30.4817 101.47 30.3882C101.547 30.3882 101.623 30.3882 101.699 30.3882C101.775 30.3882 101.852 30.3882 101.928 30.3882C105.546 30.4817 108.633 32.7551 109.967 35.9642H123.425C123.998 35.9642 124.544 36.0677 125.05 36.2568C125.052 36.2568 125.056 36.2568 125.058 36.2588C125.467 36.4798 125.872 36.7047 126.273 36.9356C127.526 37.9031 128.285 39.4877 128.127 41.2196L126.341 60.6768L125.197 73.1387C124.495 73.0172 123.773 72.9555 123.036 72.9555C120.786 72.9555 118.674 73.5388 116.832 74.566C116.18 74.9283 115.564 75.3464 114.987 75.8142C113.683 76.8693 112.586 78.1772 111.762 79.6642C110.802 81.3922 110.217 83.3649 110.117 85.4671C110.105 85.6841 110.1 85.9031 110.1 86.1241C110.1 93.2807 115.709 99.1035 122.695 99.2866H122.76C122.76 99.2866 122.774 99.2886 122.781 99.2866C122.781 99.2866 122.791 99.2886 122.795 99.2886H122.873H122.913C122.954 99.2886 122.993 99.2886 123.034 99.2886H123.21C127.612 99.2886 131.849 98.56 135.808 97.2163C137.801 96.5395 139.721 95.7074 141.56 94.7319L141.818 94.5945C141.926 94.5368 142.033 94.4771 142.139 94.4174C142.143 94.4174 142.147 94.4154 142.15 94.4114C147.811 91.2203 151.642 85.079 151.642 78.0259C151.642 77.7512 151.636 77.4784 151.625 77.2057ZM88.5282 78.633C88.5282 78.6549 88.5282 78.6748 88.5243 78.6967C88.5263 78.6748 88.5282 78.6549 88.5282 78.633ZM80.6011 99.2847C80.6011 99.2847 80.5854 99.2847 80.5796 99.2847C80.5874 99.2847 80.5933 99.2847 80.6011 99.2847ZM86.2086 30.649C84.2058 30.649 82.5843 28.9967 82.5843 26.9602C82.5843 24.9237 84.2058 23.2714 86.2086 23.2714C88.2114 23.2714 89.8328 24.9237 89.8328 26.9602C89.8328 28.9967 88.2094 30.649 86.2086 30.649ZM117.186 30.649C115.185 30.649 113.561 28.9967 113.561 26.9602C113.561 24.9237 115.185 23.2714 117.186 23.2714C119.187 23.2714 120.81 24.9237 120.81 26.9602C120.81 28.9967 119.189 30.649 117.186 30.649Z" fill="white"/>
</g>
<defs>
<clipPath id="clip0_1478_1593">
<rect width="99.8904" height="99.2886" fill="white" transform="translate(51.752)"/>
</clipPath>
</defs>
</svg>
