<?xml version="1.0" encoding="UTF-8"?>
<svg id="Layer_1" data-name="Layer 1" xmlns="http://www.w3.org/2000/svg" viewBox="0 0 692 146.79">
  <path d="M20.97,0h125.82v20.97H20.97v41.94h125.82v20.97H20.97v41.94h125.82v20.97H20.97L0,125.82V20.97L20.97,0Z"/>
  <path d="M188.73,35.75v111.03h-20.97V0h14.78l111.03,111.03V0h20.97v146.79h-14.78l-111.03-111.03Z"/>
  <path d="M419.39,20.97v125.82h-20.97V20.97h-62.91V0h146.79v20.97h-62.91Z"/>
  <path d="M524.24,0h125.82v20.97h-125.82v41.94h125.82v20.97h-125.82v41.94h125.82v20.97h-125.82l-20.97-20.97V20.97l20.97-20.97Z"/>
  <path d="M692,146.79h-20.97V0h20.97v146.79Z"/>
</svg>