<svg width="944" height="1036" viewBox="0 0 944 1036" fill="none" xmlns="http://www.w3.org/2000/svg">
<g style="mix-blend-mode:color-dodge">
<g clip-path="url(#clip0_1483_1625)">
<path d="M270.21 394.59H220.942L171.674 345.323L220.942 296.049V345.323L270.21 394.59Z" fill="#EE3224"/>
<path d="M171.68 197.514H220.948L270.21 246.782L220.948 296.055V246.782L171.68 197.514Z" fill="#EE3224"/>
<path d="M319.479 246.782V296.05L270.211 345.317L220.938 296.05H270.211L319.479 246.782Z" fill="#EE3224"/>
<path d="M122.406 345.317V296.049L171.674 246.781L220.947 296.049H171.674L122.406 345.317Z" fill="#EE3224"/>
<path d="M418.007 493.164H368.744L319.477 443.896L368.744 394.623V443.896L418.007 493.164Z" fill="#EE3224"/>
<path d="M319.482 296.087H368.745L418.013 345.355L368.745 394.628V345.355L319.482 296.087Z" fill="#EE3224"/>
<path d="M467.281 345.355V394.623L418.013 443.891L368.74 394.623H418.013L467.281 345.355Z" fill="#EE3224"/>
<path d="M270.209 443.89V394.623L319.471 345.355L368.745 394.623H319.471L270.209 443.89Z" fill="#EE3224"/>
<path d="M418.304 296.049H369.041L319.773 246.787L369.041 197.514V246.787L418.304 296.049Z" fill="#EE3224"/>
<path d="M319.779 98.978H369.042L418.31 148.24L369.042 197.514V148.24L319.779 98.978Z" fill="#EE3224"/>
<path d="M467.576 148.246V197.514L418.308 246.776L369.035 197.514H418.308L467.576 148.246Z" fill="#EE3224"/>
<path d="M270.506 246.776V197.514L319.768 148.246L369.042 197.514H319.768L270.506 246.776Z" fill="#EE3224"/>
<path d="M566.28 394.542H517.012L467.744 345.274L517.012 296V345.274L566.28 394.542Z" fill="#EE3224"/>
<path d="M467.75 197.465H517.018L566.28 246.733L517.018 296.006V246.733L467.75 197.465Z" fill="#EE3224"/>
<path d="M615.547 246.738V296.001L566.28 345.269L517.012 296.001H566.28L615.547 246.738Z" fill="#EE3224"/>
<path d="M418.477 345.268V296L467.744 246.738L517.018 296H467.744L418.477 345.268Z" fill="#EE3224"/>
<path d="M566.28 591.699H517.018L467.75 542.431L517.018 493.158V542.431L566.28 591.699Z" fill="#EE3224"/>
<path d="M467.756 394.623H517.018L566.286 443.89L517.018 493.164V443.89L467.756 394.623Z" fill="#EE3224"/>
<path d="M615.553 443.896V493.158L566.285 542.426L517.012 493.158H566.285L615.553 443.896Z" fill="#EE3224"/>
<path d="M418.482 542.426V493.158L467.745 443.896L517.018 493.158H467.745L418.482 542.426Z" fill="#EE3224"/>
<path d="M713.999 493.078H664.731L615.469 443.815L664.731 394.542V443.815L713.999 493.078Z" fill="#EE3224"/>
<path d="M615.469 296.006H664.737L714.004 345.269L664.737 394.542V345.269L615.469 296.006Z" fill="#EE3224"/>
<path d="M763.266 345.274V394.542L714.004 443.805L664.73 394.542H714.004L763.266 345.274Z" fill="#EE3224"/>
<path d="M566.195 443.804V394.542L615.463 345.274L664.736 394.542H615.463L566.195 443.804Z" fill="#EE3224"/>
<path d="M714.17 296.055H664.903L615.635 246.787L664.903 197.514V246.787L714.17 296.055Z" fill="#EE3224"/>
<path d="M615.641 98.978H664.903L714.171 148.246L664.903 197.519V148.246L615.641 98.978Z" fill="#EE3224"/>
<path d="M763.439 148.246V197.514L714.172 246.782L664.898 197.514H714.172L763.439 148.246Z" fill="#EE3224"/>
<path d="M566.367 246.782V197.514L615.635 148.246L664.903 197.514H615.635L566.367 246.782Z" fill="#EE3224"/>
<path d="M566.108 197.514H516.846L467.578 148.251L516.846 98.978V148.251L566.108 197.514Z" fill="#EE3224"/>
<path d="M516.846 98.9781V49.7048L467.713 0.571822L467.584 0.442383H516.846L516.976 0.571822L566.114 49.7048L516.846 98.9781Z" fill="#EE3224"/>
<path d="M615.383 49.7104V98.9783L566.115 148.241L516.842 98.9783H566.115L615.383 49.7104Z" fill="#EE3224"/>
<path d="M418.311 148.24V98.9781L467.573 49.7102L516.846 98.9781H467.573L418.311 148.24Z" fill="#EE3224"/>
<path d="M861.721 394.623H812.453L763.186 345.36L812.453 296.087V345.36L861.721 394.623Z" fill="#EE3224"/>
<path d="M763.191 197.551H812.454L861.722 246.814L812.454 296.087V246.814L763.191 197.551Z" fill="#EE3224"/>
<path d="M910.988 246.819V296.087L861.72 345.35L812.447 296.087H861.72L910.988 246.819Z" fill="#EE3224"/>
<path d="M713.918 345.349V296.087L763.18 246.819L812.454 296.087H763.18L713.918 345.349Z" fill="#EE3224"/>
<path d="M714.128 690.365H664.865L615.598 641.097L664.865 591.829V641.097L714.128 690.365Z" fill="#EE3224"/>
<path d="M615.604 493.288H664.866L714.134 542.556L664.866 591.829V542.556L615.604 493.288Z" fill="#EE3224"/>
<path d="M763.4 542.562V591.829L714.133 641.092L664.859 591.829H714.133L763.4 542.562Z" fill="#EE3224"/>
<path d="M566.33 641.092V591.829L615.593 542.561L664.866 591.829H615.593L566.33 641.092Z" fill="#EE3224"/>
<path d="M861.931 788.938H812.663L763.4 739.67L812.663 690.397V739.67L861.931 788.938Z" fill="#EE3224"/>
<path d="M763.4 591.861H812.668L861.936 641.129L812.668 690.402V641.129L763.4 591.861Z" fill="#EE3224"/>
<path d="M911.198 641.135V690.397L861.935 739.665L812.662 690.397H861.935L911.198 641.135Z" fill="#EE3224"/>
<path d="M714.127 739.665V690.397L763.395 641.135L812.668 690.397H763.395L714.127 739.665Z" fill="#EE3224"/>
<path d="M862.228 591.829H812.96L763.697 542.561L812.96 493.288V542.561L862.228 591.829Z" fill="#EE3224"/>
<path d="M763.697 394.752H812.965L862.233 444.02L812.965 493.293V444.02L763.697 394.752Z" fill="#EE3224"/>
<path d="M911.495 444.02V493.288L862.232 542.556L812.959 493.288H862.232L911.495 444.02Z" fill="#EE3224"/>
<path d="M714.424 542.556V493.288L763.692 444.02L812.965 493.288H763.692L714.424 542.556Z" fill="#EE3224"/>
<path d="M960.936 641.053L960.941 641.059V690.316H960.936L911.668 641.053L960.936 591.786V641.053Z" fill="#EE3224"/>
<path d="M960.985 493.293H960.942V591.775L960.936 591.78V542.507L911.674 493.245H960.936L960.985 493.293Z" fill="#EE3224"/>
<path d="M862.4 641.043V591.78L911.663 542.512L960.936 591.78H911.663L862.4 641.043Z" fill="#EE3224"/>
<path d="M960.942 838.217V887.474H960.936L911.674 838.211L960.936 788.938V838.211L960.942 838.217Z" fill="#EE3224"/>
<path d="M911.674 690.402H960.942V739.665L911.674 690.402Z" fill="#EE3224"/>
<path d="M862.4 838.206V788.938L911.668 739.67L960.941 788.938H911.668L862.4 838.206Z" fill="#EE3224"/>
<path d="M960.986 493.293H960.764L960.716 493.244L911.502 444.025L960.764 394.752V444.025L960.942 444.203V493.25L960.986 493.293Z" fill="#EE3224"/>
<path d="M960.942 296.389V394.585L960.775 394.752H960.77V345.484L911.502 296.216H960.77L960.942 296.389Z" fill="#EE3224"/>
<path d="M862.229 444.02V394.752L911.496 345.484L960.77 394.752H911.496L862.229 444.02Z" fill="#EE3224"/>
<path d="M714.128 99.0699H664.865L615.598 49.802L664.822 0.571933L664.865 0.53418V49.802L714.128 99.0699Z" fill="#EE3224"/>
<path d="M763.359 0.571777L714.134 49.7965L664.904 0.571777H763.359Z" fill="#EE3224"/>
<path d="M615.549 0.572266L566.33 49.797V0.572266H615.549Z" fill="#EE3224"/>
<path d="M861.931 197.643H812.663L763.4 148.375L812.663 99.1021V148.375L861.931 197.643Z" fill="#EE3224"/>
<path d="M861.936 49.8343L812.674 99.1021H812.668V49.8343L763.406 0.5718L763.4 0.566406H812.668L812.674 0.5718L861.936 49.8343Z" fill="#EE3224"/>
<path d="M911.198 49.8398V99.1023L861.935 148.37L812.662 99.1023H861.935L911.198 49.8398Z" fill="#EE3224"/>
<path d="M714.127 148.37V99.102L763.395 49.8396L812.668 99.102H763.395L714.127 148.37Z" fill="#EE3224"/>
<path d="M960.936 49.7532L960.941 49.7586V99.021H960.936L911.668 49.7532L960.85 0.571622L960.936 0.490723V49.7532Z" fill="#EE3224"/>
<path d="M911.577 0.571777L862.4 49.7479V0.571777H911.577Z" fill="#EE3224"/>
<path d="M960.942 246.922V296.179H960.936L911.674 246.916L960.936 197.643V246.916L960.942 246.922Z" fill="#EE3224"/>
<path d="M911.674 99.1074H960.942V148.37L911.674 99.1074Z" fill="#EE3224"/>
<path d="M862.4 246.906V197.643L911.668 148.375L960.941 197.643H911.668L862.4 246.906Z" fill="#EE3224"/>
<path d="M23.6177 49.408V98.6758L-25.6501 147.944L-74.7939 98.8052L-74.918 98.6812V98.6758H-25.6501L23.6177 49.408Z" fill="#EE3224"/>
<path d="M122.616 98.5948H73.3484L24.0859 49.3269L73.3484 0.0537109V49.3269L122.616 98.5948Z" fill="#EE3224"/>
<path d="M73.8652 0.571289H171.365L122.621 49.3214L73.8652 0.571289Z" fill="#EE3224"/>
<path d="M171.88 0.059082L171.847 0.0976598L171.809 0.059082H171.88Z" fill="#EE3224"/>
<path d="M23.5626 0.571411L-25.1875 49.3215V0.571411H23.5626Z" fill="#EE3224"/>
<path d="M122.622 295.752H73.3538L24.0859 246.485L73.3538 197.217V246.485L122.622 295.752Z" fill="#EE3224"/>
<path d="M24.0918 98.6758H73.3542L122.622 147.944L73.3542 197.217V147.944L24.0918 98.6758Z" fill="#EE3224"/>
<path d="M171.891 147.949V197.217L122.623 246.48L73.3496 197.217H122.623L171.891 147.949Z" fill="#EE3224"/>
<path d="M-25.1816 246.479V197.217L24.0862 147.949L73.3541 197.217H24.0862L-25.1816 246.479Z" fill="#EE3224"/>
<path d="M270.333 197.131H221.071L171.803 147.868L221.071 98.5952V147.868L270.333 197.131Z" fill="#EE3224"/>
<path d="M270.339 49.322L270.253 49.4083L221.071 98.5953V49.322L172.321 0.571934L171.846 0.0973235L171.809 0.0595703H221.071L221.583 0.571934L270.253 49.2357L270.339 49.322Z" fill="#EE3224"/>
<path d="M319.606 49.3276V98.5955L270.338 147.863L221.064 98.5955H270.338L319.606 49.3276Z" fill="#EE3224"/>
<path d="M122.535 147.863V98.5952L171.798 49.3274L221.071 98.5952H171.798L122.535 147.863Z" fill="#EE3224"/>
<path d="M270.507 0.108253H270.285L270.399 0L270.507 0.108253Z" fill="#EE3224"/>
<path d="M418.057 98.6758H368.789L319.608 49.4996L319.521 49.4134L319.608 49.3271L368.358 0.571579L368.789 0.145508V49.4134L418.057 98.6758Z" fill="#EE3224"/>
<path d="M466.893 0.571777L418.057 49.4082L369.215 0.571777H466.893Z" fill="#EE3224"/>
<path d="M270.509 0.108253H270.287L270.401 0L270.509 0.108253Z" fill="#EE3224"/>
<path d="M319.09 0.571655L270.34 49.3217L270.254 49.408V0.571655H319.09Z" fill="#EE3224"/>
<path d="M23.7408 443.745V493.013L23.6976 493.051L-25.5271 542.275L-74.7949 493.018V493.013H-25.5271L23.7408 443.745Z" fill="#EE3224"/>
<path d="M23.7408 640.903V690.17L-25.5217 739.433L-74.7949 690.17H-25.5217L23.7408 640.903Z" fill="#EE3224"/>
<path d="M122.19 690.089H72.9221L23.6543 640.822L72.9221 591.548V640.822L122.19 690.089Z" fill="#EE3224"/>
<path d="M23.6602 493.013H72.928L122.196 542.281L72.928 591.554V542.281L23.6602 493.013Z" fill="#EE3224"/>
<path d="M171.458 542.28V591.548L122.195 640.816L72.9219 591.548H122.195L171.458 542.28Z" fill="#EE3224"/>
<path d="M-25.6133 640.816V591.548L23.6546 542.281L72.9278 591.548H23.6546L-25.6133 640.816Z" fill="#EE3224"/>
<path d="M122.358 493.061H73.096L23.8281 443.793L73.096 394.52V443.793L122.358 493.061Z" fill="#EE3224"/>
<path d="M23.8281 295.984H73.096L122.364 345.252L73.096 394.525V345.252L23.8281 295.984Z" fill="#EE3224"/>
<path d="M171.633 345.258V394.52L122.365 443.788L73.0918 394.52H122.365L171.633 345.258Z" fill="#EE3224"/>
<path d="M-25.4395 443.788V394.52L23.823 345.258L73.0962 394.52H23.823L-25.4395 443.788Z" fill="#EE3224"/>
<path d="M23.5694 246.717V295.985L-25.6931 345.252L-74.7937 296.157L-74.9609 295.985H-25.6931L23.5694 246.717Z" fill="#EE3224"/>
<path d="M269.907 591.635H220.645L171.377 542.367L220.645 493.094V542.367L269.907 591.635Z" fill="#EE3224"/>
<path d="M171.377 394.558H220.645L269.913 443.826L220.645 493.099V443.826L171.377 394.558Z" fill="#EE3224"/>
<path d="M319.182 443.826V493.094L269.914 542.361L220.641 493.094H269.914L319.182 443.826Z" fill="#EE3224"/>
<path d="M122.109 542.362V493.094L171.372 443.826L220.645 493.094H171.372L122.109 542.362Z" fill="#EE3224"/>
<path d="M122.254 887.608H72.9866L23.7188 838.341L72.9866 789.067V838.341L122.254 887.608Z" fill="#EE3224"/>
<path d="M23.7246 690.532H72.9871L122.255 739.8L72.9871 789.073V739.8L23.7246 690.532Z" fill="#EE3224"/>
<path d="M171.523 739.8V789.068L122.256 838.336L72.9824 789.068H122.256L171.523 739.8Z" fill="#EE3224"/>
<path d="M-25.5488 838.335V789.067L23.7136 739.8L72.9869 789.067H23.7136L-25.5488 838.335Z" fill="#EE3224"/>
<path d="M270.054 986.182H220.791L171.523 936.914L220.791 887.641V936.914L270.054 986.182Z" fill="#EE3224"/>
<path d="M171.523 789.105H220.791L270.059 838.373L220.791 887.647V838.373L171.523 789.105Z" fill="#EE3224"/>
<path d="M319.328 838.373V887.641L270.06 936.909L220.787 887.641H270.06L319.328 838.373Z" fill="#EE3224"/>
<path d="M122.256 936.909V887.641L171.518 838.373L220.792 887.641H171.518L122.256 936.909Z" fill="#EE3224"/>
<path d="M270.351 789.067H221.083L171.82 739.805L221.083 690.532V739.805L270.351 789.067Z" fill="#EE3224"/>
<path d="M171.82 591.996H221.088L270.356 641.259L221.088 690.532V641.259L171.82 591.996Z" fill="#EE3224"/>
<path d="M319.618 641.264V690.532L270.355 739.794L221.082 690.532H270.355L319.618 641.264Z" fill="#EE3224"/>
<path d="M122.547 739.794V690.532L171.815 641.264L221.088 690.532H171.815L122.547 739.794Z" fill="#EE3224"/>
<path d="M418.327 887.56H369.059L319.791 838.292L369.059 789.019V838.292L418.327 887.56Z" fill="#EE3224"/>
<path d="M319.797 690.483H369.059L418.327 739.751L369.059 789.024V739.751L319.797 690.483Z" fill="#EE3224"/>
<path d="M467.594 739.751V789.019L418.326 838.287L369.053 789.019H418.326L467.594 739.751Z" fill="#EE3224"/>
<path d="M270.523 838.287V789.019L319.791 739.751L369.059 789.019H319.791L270.523 838.287Z" fill="#EE3224"/>
<path d="M369.06 986.176V1035.44H319.803L369.06 986.176Z" fill="#EE3224"/>
<path d="M319.797 887.641H369.065L418.333 936.909L369.065 986.182V936.909L319.797 887.641Z" fill="#EE3224"/>
<path d="M467.6 936.914V986.176L418.332 1035.44L369.059 986.176H418.332L467.6 936.914Z" fill="#EE3224"/>
<path d="M270.523 1035.44V986.176L319.791 936.914L369.065 986.176H319.791L270.523 1035.44Z" fill="#EE3224"/>
<path d="M566.044 986.096H516.776L467.514 936.828L516.776 887.56V936.828L566.044 986.096Z" fill="#EE3224"/>
<path d="M467.514 789.019H516.782L566.049 838.287L516.782 887.56V838.287L467.514 789.019Z" fill="#EE3224"/>
<path d="M615.311 838.292V887.56L566.049 936.823L516.775 887.56H566.049L615.311 838.292Z" fill="#EE3224"/>
<path d="M418.24 936.823V887.56L467.508 838.292L516.781 887.56H467.508L418.24 936.823Z" fill="#EE3224"/>
<path d="M566.21 789.073H516.948L467.68 739.805L516.948 690.532V739.805L566.21 789.073Z" fill="#EE3224"/>
<path d="M467.686 591.996H516.948L566.216 641.264L516.948 690.537V641.264L467.686 591.996Z" fill="#EE3224"/>
<path d="M615.484 641.264V690.532L566.217 739.8L516.943 690.532H566.217L615.484 641.264Z" fill="#EE3224"/>
<path d="M418.412 739.8V690.532L467.675 641.264L516.948 690.532H467.675L418.412 739.8Z" fill="#EE3224"/>
<path d="M418.153 690.532H368.886L319.623 641.269L368.886 591.996V641.269L418.153 690.532Z" fill="#EE3224"/>
<path d="M319.623 493.46H368.891L418.159 542.723L368.891 591.996V542.723L319.623 493.46Z" fill="#EE3224"/>
<path d="M467.426 542.728V591.996L418.158 641.258L368.885 591.996H418.158L467.426 542.728Z" fill="#EE3224"/>
<path d="M270.35 641.259V591.996L319.617 542.728L368.891 591.996H319.617L270.35 641.259Z" fill="#EE3224"/>
<path d="M713.761 887.641H664.498L615.23 838.373L664.498 789.105V838.373L713.761 887.641Z" fill="#EE3224"/>
<path d="M615.23 690.569H664.498L713.766 739.832L664.498 789.105V739.832L615.23 690.569Z" fill="#EE3224"/>
<path d="M763.035 739.837V789.105L713.767 838.368L664.494 789.105H713.767L763.035 739.837Z" fill="#EE3224"/>
<path d="M565.963 838.367V789.105L615.225 739.837L664.499 789.105H615.225L565.963 838.367Z" fill="#EE3224"/>
<path d="M565.698 1035.44H516.43L467.432 986.441H516.694L565.698 1035.44Z" fill="#EE3224"/>
<path d="M664.789 986.441V1035.44H615.791L664.789 986.441Z" fill="#EE3224"/>
<path d="M615.527 887.9H664.795L714.063 937.168L664.795 986.441V937.168L615.527 887.9Z" fill="#EE3224"/>
<path d="M763.331 937.173V986.441L714.322 1035.44L714.063 1035.7L713.804 1035.44L664.795 986.441H714.063L763.331 937.173Z" fill="#EE3224"/>
<path d="M664.79 986.441H615.522L566.513 1035.44L566.254 1035.7V986.441L615.522 937.173L664.79 986.441Z" fill="#EE3224"/>
<path d="M861.818 1035.44H812.556L763.504 986.393H812.772L812.82 986.441L861.818 1035.44Z" fill="#EE3224"/>
<path d="M960.654 986.446V1035.44H911.656L960.654 986.446Z" fill="#EE3224"/>
<path d="M960.941 888.191V986.155L960.655 986.441V937.173L911.393 887.905H960.655L960.941 888.191Z" fill="#EE3224"/>
<path d="M960.655 986.441H911.382L862.383 1035.44L862.119 1035.71V986.441L911.382 937.173L960.655 986.441Z" fill="#EE3224"/>
<path d="M861.86 986.441H812.598L763.33 937.173L812.598 887.9V937.173L861.86 986.441Z" fill="#EE3224"/>
<path d="M763.33 789.364H812.598L861.866 838.632L812.598 887.905V838.632L763.33 789.364Z" fill="#EE3224"/>
<path d="M911.133 838.638V887.9L861.865 937.168L812.592 887.9H861.865L911.133 838.638Z" fill="#EE3224"/>
<path d="M714.062 937.168L714.057 887.9L763.324 838.637L812.598 887.9H763.324L714.062 937.168Z" fill="#EE3224"/>
<path d="M24.6484 1035.44L73.5873 986.506V1035.44H24.6484Z" fill="#EE3224"/>
<path d="M24.3242 887.965H73.5867L122.855 937.233L73.5867 986.506V937.233L24.3242 887.965Z" fill="#EE3224"/>
<path d="M172.122 937.238V986.501L172.084 986.538L171.976 986.646L123.177 1035.44L122.854 1035.77L122.53 1035.44L73.5859 986.506V986.501H122.854L171.981 937.373L172.122 937.238Z" fill="#EE3224"/>
<path d="M73.5811 986.5H24.3186L-24.6256 1035.44L-24.9492 1035.77V986.5L24.3186 937.238L73.5811 986.5Z" fill="#EE3224"/>
<path d="M24.0645 838.697V887.964L-25.2033 937.232L-74.4766 887.964H-25.2033L24.0645 838.697Z" fill="#EE3224"/>
<path d="M270.042 1035.44H220.774L171.976 986.646L171.873 986.538H221.135L270.042 1035.44Z" fill="#EE3224"/>
<path d="M73.3535 0.0537109L73.8659 0.571468H23.5625L24.0803 0.0537109H73.3535Z" fill="#EE3224"/>
<path d="M221.072 0.0595703L221.584 0.571934H171.367L171.847 0.0973235L171.809 0.0595703H221.072Z" fill="#EE3224"/>
<path d="M270.399 0L270.507 0.108253H270.285L270.399 0Z" fill="#EE3224"/>
<path d="M368.789 0.14553L369.215 0.571601H319.09L319.521 0.140137H368.789V0.14553Z" fill="#EE3224"/>
<path d="M516.846 0.442383L516.976 0.571822H467.713L467.584 0.442383H516.846Z" fill="#EE3224"/>
<path d="M664.865 0.533714L664.903 0.571467H615.549L615.592 0.52832H664.865V0.533714Z" fill="#EE3224"/>
<path d="M812.668 0.566406L812.674 0.5718H763.406L763.4 0.566406H812.668Z" fill="#EE3224"/>
<path d="M960.941 0.49616L961.017 0.571667H911.576L911.662 0.485374H960.936L960.941 0.47998V0.49616Z" fill="#EE3224"/>
<path d="M123.178 1035.44L122.855 1035.77L122.531 1035.44H123.178Z" fill="#EE3224"/>
<path d="M566.514 1035.44L566.254 1035.7V1035.44H566.514Z" fill="#EE3224"/>
<path d="M714.064 1035.7L713.805 1035.44H714.323L714.064 1035.7Z" fill="#EE3224"/>
<path d="M862.384 1035.44L862.119 1035.71V1035.44H862.384Z" fill="#EE3224"/>
</g>
</g>
<defs>
<clipPath id="clip0_1483_1625">
<rect width="961.017" height="1036" fill="white"/>
</clipPath>
</defs>
</svg>
