<svg width="1612" height="342" viewBox="0 0 1612 342" fill="none" xmlns="http://www.w3.org/2000/svg">
<path d="M49.2422 0.203125H342.211V49.0312H49.2422V146.688H342.211V195.516H49.2422V293.172H342.211V342H49.2422L0.414062 293.172V49.0312L49.2422 0.203125ZM439.867 83.4551V342H391.039V0.203125H425.463L684.008 258.748V0.203125H732.836V342H698.412L439.867 83.4551ZM976.977 49.0312V342H928.148V49.0312H781.664V0.203125H1123.46V49.0312H976.977ZM1221.12 0.203125H1514.09V49.0312H1221.12V146.688H1514.09V195.516H1221.12V293.172H1514.09V342H1221.12L1172.29 293.172V49.0312L1221.12 0.203125ZM1611.74 342H1562.91V0.203125H1611.74V342Z" fill="#FF2400"/>
</svg>
