<svg width="45" height="46" viewBox="0 0 45 46" fill="none" xmlns="http://www.w3.org/2000/svg">
<path d="M24.4881 45.1583C23.3897 46.2803 21.6106 46.2808 20.5125 45.1583C19.4144 44.0357 19.4148 42.217 20.5125 41.0942L24.4881 45.1583ZM44.1766 20.9676C45.2747 22.0902 45.2742 23.9089 44.1766 25.0317L24.4881 45.1583L22.5023 43.1241L20.5125 41.0942L35.4014 25.874H2.81382C1.26101 25.874 0.000740829 24.5889 0 23.0018C0 21.4139 1.26055 20.1253 2.81382 20.1253H35.4014L20.5125 4.9093L22.5023 2.87516L24.4881 0.841023L44.1766 20.9676ZM20.5125 0.841023C21.6104 -0.280575 23.3899 -0.280107 24.4881 0.841023L20.5125 4.9093C19.4141 3.78653 19.4141 1.96379 20.5125 0.841023Z" fill="#FF2400"/>
</svg>
