<?xml version="1.0" encoding="UTF-8"?>
<svg id="Layer_1" xmlns="http://www.w3.org/2000/svg" version="1.1" viewBox="0 0 45 46">
  <!-- Generator: Adobe Illustrator 29.2.1, SVG Export Plug-In . SVG Version: 2.1.0 Build 116)  -->
  <path d="M24.5,45.2c-1.1,1.1-2.9,1.1-4,0-1.1-1.1-1.1-2.9,0-4.1l4,4.1ZM44.2,21c1.1,1.1,1.1,2.9,0,4.1l-19.7,20.1-2-2-2-2,14.9-15.2H2.8C1.3,25.9,0,24.6,0,23c0-1.6,1.3-2.9,2.8-2.9h32.6l-14.9-15.2,2-2,2-2,19.7,20.1ZM20.5.8c1.1-1.1,2.9-1.1,4,0l-4,4.1c-1.1-1.1-1.1-2.9,0-4.1Z"/>
</svg>