<svg width="87" height="14" viewBox="0 0 87 14" fill="none" xmlns="http://www.w3.org/2000/svg">
<path d="M7.5 0L9.27051 5.34752H15L10.3647 8.65248L12.1353 14L7.5 10.695L2.86475 14L4.63525 8.65248L0 5.34752H5.72949L7.5 0Z" fill="#FF2400"/>
<path d="M25 0L26.6525 5.34752H32L27.6738 8.65248L29.3262 14L25 10.695L20.6738 14L22.3262 8.65248L18 5.34752H23.3475L25 0Z" fill="#FF2400"/>
<path d="M42.5 0L44.2705 5.34752H50L45.3647 8.65248L47.1353 14L42.5 10.695L37.8647 14L39.6353 8.65248L35 5.34752H40.7295L42.5 0Z" fill="#FF2400"/>
<path d="M60.5 0L62.2705 5.34752H68L63.3647 8.65248L65.1353 14L60.5 10.695L55.8647 14L57.6353 8.65248L53 5.34752H58.7295L60.5 0Z" fill="#FF2400"/>
<path d="M79 0L80.8885 5.34752H87L82.0557 8.65248L83.9443 14L79 10.695L74.0557 14L75.9443 8.65248L71 5.34752H77.1115L79 0Z" fill="#FF2400"/>
</svg>
