<svg width="1288" height="808" viewBox="0 0 1288 808" fill="none" xmlns="http://www.w3.org/2000/svg">
<g filter="url(#filter0_d_2361_63807)">
<g clip-path="url(#clip0_2361_63807)">
<mask id="path-1-inside-1_2361_63807" fill="white">
<path d="M4 0H1284V800H4V0Z"/>
</mask>
<path d="M1308.49 1060.99C1308.49 1060.99 1308.49 1060.92 1308.49 1060.84C1307.7 1051.16 1306.68 1041.48 1305.46 1031.88C1305.46 1031.8 1305.46 1031.66 1305.46 1031.59C1305.31 1030.44 1305.17 1029.3 1305.02 1028.15C1305.02 1028 1305.02 1027.86 1305.02 1027.72C1300.98 997.028 1294.76 966.913 1286.6 937.729C1286.31 936.725 1286.02 935.722 1285.73 934.718C1279.59 913.063 1272.29 891.839 1264.05 871.116C1264.05 871.045 1263.98 870.901 1263.98 870.83C1249.96 835.838 1233.13 802.352 1213.55 770.659C1197.72 744.989 1180.24 720.538 1161.16 697.306C1169.26 660.953 1173.45 623.093 1173.45 584.301C1173.45 490.369 1148.59 402.173 1105.09 325.881C1098.37 314.049 1091.22 302.577 1083.56 291.319C1081.25 287.877 1078.86 284.507 1076.48 281.137C1094.4 264.574 1105.6 240.983 1105.6 214.74C1105.6 211.011 1105.38 207.426 1104.95 203.841C1100.11 163.758 1068.89 131.707 1028.94 125.253C1024.17 124.464 1019.18 124.034 1014.2 124.034C987.607 124.034 963.618 135.292 946.927 153.361C861.017 93.8469 756.536 58.8555 643.819 58.8555C531.102 58.8555 426.622 93.8469 340.783 153.433C324.092 135.435 300.104 124.106 273.514 124.106C268.456 124.106 263.543 124.536 258.774 125.325C218.889 131.778 187.603 163.83 182.762 203.912C182.329 207.497 182.112 211.154 182.112 214.811C182.112 241.055 193.311 264.645 211.23 281.209C208.774 284.579 206.462 287.949 204.149 291.391C196.563 302.577 189.337 314.121 182.618 325.952C139.048 402.245 114.265 490.441 114.265 584.373C114.265 623.165 118.455 660.953 126.548 697.378C107.473 720.538 89.9871 745.061 74.1633 770.731C54.6546 802.496 37.747 835.982 23.7296 870.901C23.7296 870.973 23.6573 871.116 23.6573 871.188C15.348 891.911 8.12255 913.135 1.9809 934.789C1.69188 935.793 1.40286 936.797 1.11385 937.801C-7.05093 967.056 -13.2648 997.1 -17.3111 1027.79C-17.3111 1027.93 -17.3111 1028.08 -17.3111 1028.22C-17.4556 1029.37 -17.6001 1030.51 -17.7446 1031.66C-17.7446 1031.73 -17.7446 1031.8 -17.7446 1031.95V1032.09C-19.3342 1041.48 -20.2735 1050.95 -20.7071 1060.63C-20.7071 1060.63 -20.7071 1060.77 -20.7071 1060.84C-20.7071 1060.84 -20.7071 1060.92 -20.7071 1060.99C-20.8516 1064.5 -20.9238 1068.09 -20.9238 1071.6C-20.9238 1163.17 30.088 1242.83 105.45 1284.27C105.45 1284.27 105.522 1284.35 105.594 1284.35C106.967 1285.13 108.412 1285.92 109.857 1286.64L113.325 1288.43C137.82 1301.12 163.398 1311.88 189.915 1320.7C242.589 1338.12 299.02 1347.59 357.618 1347.59H359.931C360.509 1347.59 361.014 1347.59 361.52 1347.59H362.026H363.11C363.11 1347.59 363.254 1347.59 363.327 1347.59C363.399 1347.59 363.471 1347.59 363.616 1347.59H364.483C457.474 1345.22 532.186 1269.65 532.186 1176.72C532.186 1173.85 532.113 1170.98 531.969 1168.19C530.668 1140.87 522.865 1115.27 510.076 1092.9C499.093 1073.61 484.498 1056.61 467.156 1042.92C459.497 1036.82 451.26 1031.45 442.59 1026.71C418.096 1013.38 389.916 1005.78 360.003 1005.78C350.176 1005.78 340.566 1006.56 331.245 1008.14L316 846.379L310.53 900.632C292.226 1265.8 293.839 934.946 310.53 922.398C315.877 919.387 316.75 915.476 322.242 912.608L331.245 894.696C337.965 892.258 472.142 1416.88 437.604 934.27L641.001 1005.78C658.776 964.116 550.891 1081.71 599.084 1080.49C557.168 1618.23 642.808 1028.22 643.819 1028.22C644.831 1028.22 844.47 934.27 845.482 934.27C893.676 935.489 738.112 1051.24 755.886 1092.9L531.969 1288.43C539.628 1288.43 557.114 1484.47 756.103 1008.14V975.883C579.151 1384.24 458.647 1710.41 785.744 1080.49C802.434 1093.04 601.18 1352.71 599.084 1375.15L972.072 846.379L956.826 1008.14C947.506 1006.56 937.896 1005.78 928.069 1005.78C898.156 1005.78 869.976 1013.38 845.482 1026.71C836.811 1031.45 828.574 1036.82 820.915 1042.92C803.574 1056.61 788.907 1073.61 777.996 1092.9C765.207 1115.34 757.403 1140.94 756.103 1168.19C755.958 1170.98 755.886 1173.85 755.886 1176.72C755.886 1269.57 830.597 1345.22 923.589 1347.59H924.456C924.456 1347.59 924.673 1347.59 924.745 1347.59C924.745 1347.59 924.89 1347.59 924.962 1347.59H925.974H926.479C927.057 1347.59 927.563 1347.59 928.069 1347.59H930.381C988.98 1347.59 1045.41 1338.12 1098.08 1320.7C1124.6 1311.88 1150.18 1301.12 1174.67 1288.43L1178.14 1286.64C1179.59 1285.92 1181.03 1285.13 1182.41 1284.35C1182.41 1284.35 1182.48 1284.35 1182.55 1284.27C1257.91 1242.83 1308.92 1163.17 1308.92 1071.6C1308.92 1068.02 1308.85 1064.5 1308.71 1060.99H1308.49ZM468.529 1079.49C468.529 1079.77 468.529 1079.99 468.529 1080.28C468.746 1080.35 468.963 1080.42 469.18 1080.49C469.18 1080.49 468.746 1080.35 468.529 1080.28C468.529 1079.99 468.529 1079.7 468.529 1079.42V1079.49ZM362.965 1347.52C362.965 1347.52 362.748 1347.52 362.676 1347.52C362.748 1347.52 362.893 1347.52 362.965 1347.52ZM819.109 1079.49C818.892 1079.85 818.748 1080.2 818.531 1080.49C818.748 1080.13 818.964 1079.77 819.109 1079.49Z" fill="black"/>
</g>
<path d="M1284 800V799H4V800V801H1284V800Z" fill="#5E3D5D" mask="url(#path-1-inside-1_2361_63807)"/>
</g>
<defs>
<filter id="filter0_d_2361_63807" x="0" y="0" width="1288" height="808" filterUnits="userSpaceOnUse" color-interpolation-filters="sRGB">
<feFlood flood-opacity="0" result="BackgroundImageFix"/>
<feColorMatrix in="SourceAlpha" type="matrix" values="0 0 0 0 0 0 0 0 0 0 0 0 0 0 0 0 0 0 127 0" result="hardAlpha"/>
<feOffset dy="4"/>
<feGaussianBlur stdDeviation="2"/>
<feComposite in2="hardAlpha" operator="out"/>
<feColorMatrix type="matrix" values="0 0 0 0 0 0 0 0 0 0 0 0 0 0 0 0 0 0 0.25 0"/>
<feBlend mode="normal" in2="BackgroundImageFix" result="effect1_dropShadow_2361_63807"/>
<feBlend mode="normal" in="SourceGraphic" in2="effect1_dropShadow_2361_63807" result="shape"/>
</filter>
<clipPath id="clip0_2361_63807">
<path d="M4 0H1284V800H4V0Z" fill="white"/>
</clipPath>
</defs>
</svg>
